<svg id="Layer_1" data-name="Layer 1" xmlns="http://www.w3.org/2000/svg" viewBox="0 0 298 232"><defs><style>.cls-1{fill:#4a4a49;}.cls-1,.cls-2,.cls-3,.cls-4{stroke:#bababa;stroke-miterlimit:10;}.cls-2{fill:#666;}.cls-3{fill:#ce2d4f;}.cls-4{fill:#878787;}</style></defs><title>afghanistanAfter</title><g id="Layer_1-2" data-name="Layer 1-2"><polygon class="cls-1" points="104.27 231.13 99.97 229.25 92.33 229.77 88.66 226.31 87.51 226.21 84.27 228.93 81.65 226.94 78.61 227.04 71.28 227.15 70.75 225.68 69.18 224.63 68.97 220.97 66.25 215.73 64.78 210.71 62.27 207.15 61.96 205.68 60.7 205.78 60.7 204.84 55.99 204.21 53.16 205.05 49.49 207.78 46.67 207.88 46.35 206.62 46.25 208.19 40.49 211.75 35.67 215.73 30.22 212.07 25.62 210.92 22.27 211.44 20.9 212.17 16.09 207.88 13.78 207.57 11.58 206.1 8.34 205.37 4.25 201.07 5.93 199.61 5.51 198.35 2.89 198.14 2.26 197.2 0.5 197.11 0.5 231.5 43.52 231.5 43.52 230.5 52.12 225.33 52.9 223.97 52.94 221.96 52.95 220.73 53.42 219.43 54.16 220.32 54.89 219.43 55.51 215.67 56.66 215.77 57.6 215.51 58.28 216.56 57.71 216.45 57.13 216.92 57.81 217.76 57.29 219.32 57.91 219.69 57.56 223.59 56.41 225.79 56.32 227.47 56.3 227.88 57.03 228.51 58.29 228.09 58.71 229.98 58.85 231.5 110.8 231.5 110.34 231.34 104.27 231.13"/><polygon class="cls-1" points="8.57 55.27 9.57 51.68 7.47 48.58 6.13 44.97 3.58 38.11 2.29 33.22 2.49 26.14 2.09 23.94 2.19 19.95 1.29 17.15 0.5 16.75 0.5 54.23 5.48 54.67 8.57 55.27"/><polygon class="cls-1" points="155.69 231.44 155.68 231.5 159.17 231.5 156.84 229.98 155.69 231.44"/><polygon class="cls-1" points="114.26 164.55 114.3 164.5 124.64 150.38 114.26 164.55"/><polygon class="cls-1" points="196.53 229.03 192.45 229.14 189.1 230.4 185.12 229.87 184.07 229.03 183.65 230.08 181.45 230.08 179.36 231.44 177.16 230.82 173.49 230.82 172.78 231.5 199.53 231.5 199.47 231.34 196.53 229.03"/><polygon class="cls-1" points="161.76 230.61 161.52 231.5 163.54 231.5 163.23 230.92 161.76 230.61"/><polygon class="cls-1" points="117.46 230.92 117.31 231.5 119.75 231.5 119.24 230.61 117.46 230.92"/><polygon class="cls-2" points="184.81 9.5 187.2 8.2 191.09 8.1 191.79 11.19 190.49 13.99 191.99 17.88 194.78 19.08 195.18 22.87 193.88 24.46 190.99 31.25 189.98 39.98 191.79 42.32 193.88 43.22 198.48 42.23 201.47 40.53 202.97 38.33 204.56 38.03 206.16 36.54 207.56 37.53 209.05 39.53 213.84 39.93 213.74 37.73 212.44 36.44 212.65 34.54 215.64 33.74 216.74 32.24 218.13 32.24 218.53 33.74 221.52 33.44 223.42 30.45 222.72 26.66 223.92 24.76 225.62 23.27 226.11 19.27 227.51 16.78 230.8 16.78 233.2 18.48 235.69 19.77 235.69 21.97 235.09 25.16 235.89 27.76 238.19 27.66 239.18 30.25 238.98 33.74 239.38 36.54 239.58 41.92 241.68 44.72 241.68 46.61 244.17 47.61 247.66 47.61 250.06 45.81 250.56 44.42 255.35 42.23 257.57 40.22 258.18 37.67 260.04 36.04 266.32 32.05 270.31 31.15 271.01 34.04 276.2 33.44 278 31.25 283.88 31.25 284.53 33.57 280.33 37.17 282.53 37.77 282.41 37.73 283.68 36.94 285.58 36.44 288.17 38.73 289.57 37.73 291.87 37.93 293.46 36.84 294.76 35.44 296.45 35.54 297.5 36.53 297.5 0.5 181.13 0.5 181.22 4.31 184.81 9.5"/><polygon class="cls-2" points="136.85 10.39 147.24 14.98 156.63 21.38 164.03 22.58 165.62 24.38 167.82 23.98 173.02 27.57 172.82 31.17 173.6 37.38 177.52 36.34 180.52 37.73 182.21 40.23 184.11 40.33 186.4 38.23 188.8 38.43 189.98 39.98 190.99 31.25 193.88 24.46 195.18 22.87 194.78 19.08 191.99 17.88 190.49 13.99 191.79 11.19 191.09 8.1 187.2 8.2 184.81 9.5 181.22 4.31 181.13 0.5 122.75 0.5 127.65 3.59 136.85 10.39"/><polygon class="cls-2" points="2.19 19.95 2.09 23.94 2.49 26.14 2.29 33.22 3.58 38.11 6.13 44.97 9 43.32 15.79 42.92 16.98 39.23 18.78 36.94 21.07 36.74 26.86 31.85 32.75 30.75 37.94 31.85 38.93 28.55 41.73 27.86 44.42 28.95 47.52 28.85 52.51 32.84 56.79 34.04 64.88 39.13 67.07 39.03 69.27 37.53 74.85 39.83 77.75 40.33 78.55 44.42 79.84 45.42 82.74 44.72 87.92 45.92 93.51 53.7 99.6 54.2 103.09 55.69 105.28 59.58 104.29 61.68 105.48 65.07 105.38 67.17 106.52 69.34 107.88 68.86 110.97 69.66 113.17 71.36 115.46 71.36 117.26 69.66 119.65 69.66 122.75 71.96 123.54 73.95 124.74 75.05 126.14 73.55 130.13 72.95 132.13 70.66 132.52 68.86 134.32 67.27 133.62 65.37 137.91 63.08 143.3 61.98 143.8 60.58 145.89 58.89 148.09 58.39 148.99 54.7 149.09 51.2 152.28 47.81 152.28 44.92 150.98 43.92 151.21 42.17 152.61 41.57 154.1 40.47 157.71 39.52 158.85 39.57 163 36.52 166.25 35.54 169.04 37.24 172.03 36.54 173.03 37.53 173.6 37.38 172.82 31.17 173.02 27.57 167.82 23.98 165.62 24.38 164.03 22.58 156.63 21.38 147.24 14.98 136.85 10.39 127.65 3.59 122.75 0.5 0.5 0.5 0.5 16.75 1.29 17.15 2.19 19.95"/><polygon class="cls-2" points="297.5 124.47 293.46 128.33 294.26 129.53 295.66 134.62 294.96 141.5 294.56 144.79 292.36 146.49 288.37 150.88 290.17 152.28 290.27 154.87 288.77 158.26 284.28 160.46 281.19 164.85 280.59 169.34 279 172.33 272.61 176.82 269.92 185 265.52 189.89 258.24 190.29 253.05 192.99 251.06 192.58 250.46 189.89 247.47 188.59 245.67 189.89 243.07 191.19 242.48 193.58 238.79 198.87 236.69 199.57 234.5 205.16 234.5 208.65 236.79 208.55 240.08 209.65 241.58 208.85 244.17 208.95 246.17 213.24 245.97 216.63 246.57 221.72 251.06 224.61 253.75 224.41 255.65 226.01 254.95 227.91 257.64 231.5 257.64 231.5 297.5 231.5 297.5 124.47"/><polygon class="cls-2" points="254.95 227.91 255.65 226.01 253.75 224.41 251.06 224.61 246.57 221.72 245.97 216.63 246.17 213.24 244.17 208.95 241.58 208.85 240.08 209.65 236.79 208.55 234.5 208.65 234.5 205.16 236.69 199.57 238.79 198.87 242.48 193.58 243.07 191.19 245.67 189.89 247.47 188.59 250.46 189.89 251.06 192.58 253.05 192.99 258.24 190.29 265.52 189.89 269.92 185 272.61 176.82 279 172.33 280.59 169.34 281.19 164.85 284.28 160.46 288.77 158.26 290.27 154.87 290.17 152.28 288.37 150.88 292.36 146.49 294.56 144.79 294.96 141.5 295.66 134.62 294.26 129.53 293.46 128.33 297.5 124.47 297.5 115.62 296.11 115.32 294.41 111.76 289.56 109.76 284.37 108.51 279.39 103.98 278.69 99.89 276.5 90.52 274.01 86.42 273.91 82.13 276.2 81.14 276.6 78.24 280.49 75.75 280.39 72.36 276.4 71.26 275.6 68.47 271.91 66.27 268.12 63.08 265.32 59.58 262.53 60.58 260.54 61.38 258.54 59.48 257.94 54 264.63 49.51 263.72 47.15 259.75 47.96 256.55 46.16 251.96 48.56 248.56 51.55 244.76 51.55 242.56 54.95 239.97 57.55 245.96 66.34 246.36 72.34 239.77 80.93 243.16 84.13 243.16 87.92 239.56 93.32 234.37 93.32 229.37 91.32 225.97 93.52 227.51 97.1 230.4 98.7 232.1 102.49 231.5 104.88 228.21 106.68 225.12 106.98 224.02 108.97 223.62 113.86 222.62 117.06 222.52 118.95 221.52 120.15 222.58 126.3 219.58 130.69 216.93 127.33 215.34 127.33 215.14 129.23 211.74 129.03 210.15 127.93 206.85 128.23 205.96 130.03 200.77 134.02 203.06 134.72 201.47 136.71 196.38 139 194.78 137.91 191.39 138.61 190.39 140.7 189.79 142.9 187.2 143.79 185.41 146.09 185.6 149.88 186.6 154.37 186.4 157.26 187.5 159.96 186.9 162.55 181.41 164.85 176.62 164.75 172.24 165.34 164.85 165.75 159.96 167.04 158.27 168.44 153.88 168.24 149.24 169.46 133.25 169.86 114.3 164.5 114.26 164.55 121.45 174.13 123.05 177.32 126.64 181.11 130.13 183.01 131.33 184.4 135.92 184.8 138.51 185.8 138.91 187.3 142.7 187.7 142.8 192.38 143.8 195.58 144 199.37 144.7 201.87 148.09 201.66 151.68 204.06 152.08 209.45 150.09 211.34 146.49 209.95 139.81 211.94 138.41 213.44 134.22 215.13 132.82 217.83 133.52 220.22 131.43 223.12 132.72 226.51 132.13 231.4 132.13 231.5 155.68 231.5 155.69 231.44 156.84 229.98 159.17 231.5 161.52 231.5 161.76 230.61 163.23 230.92 163.54 231.5 172.78 231.5 173.49 230.82 177.16 230.82 179.36 231.44 181.45 230.08 183.65 230.08 184.07 229.03 185.12 229.87 189.1 230.4 192.45 229.14 196.53 229.03 199.47 231.34 199.53 231.5 257.64 231.5 257.64 231.5 254.95 227.91"/><polygon class="cls-2" points="294.76 35.44 293.46 36.84 291.87 37.93 289.57 37.73 288.17 38.73 285.58 36.44 283.68 36.94 282.41 37.73 282.53 37.77 279.73 42.56 273.54 45.16 263.72 47.15 264.63 49.51 257.94 54 258.54 59.48 260.54 61.38 262.53 60.58 265.32 59.58 268.12 63.08 271.91 66.27 275.6 68.47 276.4 71.26 280.39 72.36 280.49 75.75 276.6 78.24 276.2 81.14 273.91 82.13 274.01 86.42 276.5 90.52 278.69 99.89 279.39 103.98 284.37 108.51 289.56 109.76 294.41 111.76 296.11 115.32 297.5 115.62 297.5 36.53 296.45 35.54 294.76 35.44"/><polygon class="cls-3" points="279.73 42.56 282.53 37.77 280.33 37.17 284.53 33.57 283.88 31.25 278 31.25 276.2 33.44 271.01 34.04 270.31 31.15 266.32 32.05 260.04 36.04 258.18 37.67 257.57 40.22 255.35 42.23 250.56 44.42 250.06 45.81 247.66 47.61 244.17 47.61 241.68 46.61 241.68 44.72 239.58 41.92 239.38 36.54 238.98 33.74 239.18 30.25 238.19 27.66 235.89 27.76 235.09 25.16 235.69 21.97 235.69 19.77 233.2 18.48 230.8 16.78 227.51 16.78 226.11 19.27 225.62 23.27 223.92 24.76 222.72 26.66 223.42 30.45 221.52 33.44 218.53 33.74 218.13 32.24 216.74 32.24 215.64 33.74 212.65 34.54 212.44 36.44 213.74 37.73 213.84 39.93 209.05 39.53 207.56 37.53 206.16 36.54 204.56 38.03 202.97 38.33 201.47 40.53 198.48 42.23 193.88 43.22 191.79 42.32 189.98 39.98 188.8 38.43 186.4 38.23 184.11 40.33 182.21 40.23 180.52 37.73 177.52 36.34 173.6 37.38 173.03 37.53 172.03 36.54 169.04 37.24 166.25 35.54 163 36.52 158.85 39.57 157.71 39.52 154.1 40.47 152.61 41.57 151.21 42.17 150.98 43.92 152.28 44.92 152.28 47.81 149.09 51.2 148.99 54.7 148.09 58.39 145.89 58.89 143.8 60.58 143.3 61.98 137.91 63.08 133.62 65.37 134.32 67.27 132.52 68.86 132.13 70.66 130.13 72.95 126.14 73.55 124.74 75.05 123.54 73.95 122.75 71.96 119.65 69.66 117.26 69.66 115.46 71.36 113.17 71.36 110.97 69.66 107.88 68.86 106.52 69.34 106.68 69.66 106.48 73.55 106.78 75.45 105.78 77.55 107.58 79.94 106.88 80.64 107.08 82.43 103.49 84.83 100.5 85.63 101.69 87.52 103.99 89.32 101.39 93.01 102.09 93.61 102.99 98.6 102.99 101.29 107.68 102.39 108.88 102.39 104.59 107.68 103.89 111.27 107.58 118.45 109.58 124.94 108.58 126.83 109.98 129.33 110.37 134.42 122.45 134.62 124.64 139.41 124.34 143.2 125.74 148.68 124.64 150.38 114.3 164.5 133.25 169.86 149.24 169.46 153.88 168.24 158.27 168.44 159.96 167.04 164.85 165.75 172.24 165.34 176.62 164.75 181.41 164.85 186.9 162.55 187.5 159.96 186.4 157.26 186.6 154.37 185.6 149.88 185.41 146.09 187.2 143.79 189.79 142.9 190.39 140.7 191.39 138.61 194.78 137.91 196.38 139 201.47 136.71 203.06 134.72 200.77 134.02 205.96 130.03 206.85 128.23 210.15 127.93 211.74 129.03 215.14 129.23 215.34 127.33 216.93 127.33 219.58 130.69 222.58 126.3 221.52 120.15 222.52 118.95 222.62 117.06 223.62 113.86 224.02 108.97 225.12 106.98 228.21 106.68 231.5 104.88 232.1 102.49 230.4 98.7 227.51 97.1 225.97 93.52 229.37 91.32 234.37 93.32 239.56 93.32 243.16 87.92 243.16 84.13 239.77 80.93 246.36 72.34 245.96 66.34 239.97 57.55 242.56 54.95 244.76 51.55 248.56 51.55 251.96 48.56 256.55 46.16 259.75 47.96 263.72 47.15 273.54 45.16 279.73 42.56"/><polygon class="cls-2" points="132.72 226.51 131.43 223.12 133.52 220.22 132.82 217.83 134.22 215.13 138.41 213.44 139.81 211.94 146.49 209.95 150.09 211.34 152.08 209.45 151.68 204.06 148.09 201.66 144.7 201.87 144 199.37 143.8 195.58 142.8 192.38 142.7 187.7 138.91 187.3 138.51 185.8 135.92 184.8 131.33 184.4 130.13 183.01 126.64 181.11 123.05 177.32 121.45 174.13 114.26 164.55 124.64 150.38 125.74 148.68 124.34 143.2 124.64 139.41 122.45 134.62 110.37 134.42 109.98 129.33 108.58 126.83 109.58 124.94 107.58 118.45 103.89 111.27 104.59 107.68 108.88 102.39 107.68 102.39 102.99 101.29 102.99 98.6 102.09 93.61 101.39 93.01 103.99 89.32 101.69 87.52 100.5 85.63 103.49 84.83 107.08 82.43 106.88 80.64 107.58 79.94 105.78 77.55 106.78 75.45 106.48 73.55 106.68 69.66 106.52 69.34 105.38 67.17 105.48 65.07 104.29 61.68 105.28 59.58 103.09 55.69 99.6 54.2 93.51 53.7 87.92 45.92 82.74 44.72 79.84 45.42 78.55 44.42 77.75 40.33 74.85 39.83 69.27 37.53 67.07 39.03 64.88 39.13 56.79 34.04 52.51 32.84 47.52 28.85 44.42 28.95 41.73 27.86 38.93 28.55 37.94 31.85 32.75 30.75 26.86 31.85 21.07 36.74 18.78 36.94 16.98 39.23 15.79 42.92 9 43.32 6.13 44.97 7.47 48.58 9.57 51.68 8.57 55.27 5.48 54.67 0.5 54.23 0.5 197.11 2.26 197.2 2.89 198.14 5.51 198.35 5.93 199.61 4.25 201.07 8.34 205.37 11.58 206.1 13.78 207.57 16.09 207.88 20.9 212.17 22.27 211.44 25.62 210.92 30.22 212.07 35.67 215.73 40.49 211.75 46.25 208.19 46.35 206.62 46.67 207.88 49.49 207.78 53.16 205.05 55.99 204.21 60.7 204.84 60.7 205.78 61.96 205.68 62.27 207.15 64.78 210.71 66.25 215.73 68.97 220.97 69.18 224.63 70.75 225.68 71.28 227.15 78.61 227.04 81.65 226.94 84.27 228.93 87.51 226.21 88.66 226.31 92.33 229.77 99.97 229.25 104.27 231.13 110.34 231.34 110.8 231.5 117.31 231.5 117.46 230.92 119.24 230.61 119.75 231.5 132.13 231.5 132.13 231.4 132.72 226.51"/><polygon class="cls-4" points="58.29 228.09 57.03 228.51 56.3 227.88 56.32 227.47 55.08 227.41 54.68 222.51 52.94 221.96 52.9 223.97 52.12 225.33 43.52 230.5 43.52 231.5 58.85 231.5 58.71 229.98 58.29 228.09"/><polygon class="cls-4" points="55.08 227.41 56.32 227.47 56.41 225.79 57.56 223.59 57.91 219.69 57.29 219.32 57.81 217.76 57.13 216.92 57.71 216.45 58.28 216.56 57.6 215.51 56.66 215.77 55.51 215.67 54.89 219.43 54.16 220.32 53.42 219.43 52.95 220.73 52.94 221.96 54.68 222.51 55.08 227.41"/></g></svg>