<svg id="Layer_1" data-name="Layer 1" xmlns="http://www.w3.org/2000/svg" viewBox="0 0 1278.69 664.39"><defs><style>.cls-1{fill:#501522;}</style></defs><title>droneColor</title><path class="cls-1" d="M116.1,1.1c-4.7.5-9.8,1.6-11.4,2.4a19.4,19.4,0,0,1-7,1.5c-3.2,0-3.8.3-3.3,1.6a15.63,15.63,0,0,1,.6,2c0,.2,2.5.4,5.6.4,3.4,0,5.3.4,4.9,1a3.5,3.5,0,0,1-2.6,1c-1.2,0-1.9.5-1.6,1.2.2.9,3,1.3,8.5,1.4l8.1.2,46.8,44.8c25.7,24.7,50.6,48.5,55.3,52.9,18.3,17.5,47.3,43.8,64.2,58.3,9.7,8.3,17.9,15.6,18.2,16.1.8,1.2-.2,1.5-17.4,4.6-17.6,3.2-43.4,9.3-59.3,14.1-6.5,2-12.1,3.4-12.4,3-.6-.5,2.4-45.7,3.1-46.3.2-.2,7.4-.5,16-.7s16-.6,16.2-.9c1-.9-2.3-2.5-6.6-3.1-2.5-.4-9.1-.9-14.7-1.3l-10.3-.6V136.9l-4.7-2.2c-4.6-2.1-6-2.2-36.5-2.2-27.8,0-31.9.2-33.3,1.6-.9.9-4.8,9.9-8.6,20-12.1,31.8-14.1,36.9-14.8,36.9-.3,0-3-7.8-5.8-17.3S105,146.1,101,133.5C90.5,99.7,83,73.6,83.6,73c.3-.3,12.2-.6,26.5-.8S136,71.5,136,71c0-1-5-1.5-30-3-25.3-1.6-25.6-1.7-27.8-4.8a65.91,65.91,0,0,1-4.6-10.4C70.3,43.7,68.4,41.4,62.8,40c-5.3-1.5-60.2-1-61.7.5-.7.7-.7,5-.1,13,.5,6.6,2.6,36.1,4.5,65.5s4.2,62.5,5,73.5c1.9,26.3,4.4,68.9,7,118,.2,5.5.1,16.1-.3,23.5s-.5,14,0,14.6.9,5.7,1,11.4l.3,10.4,9.9,7.2c5.5,3.9,12.3,8.6,15.3,10.4,5.4,3.3,5.5,3.3,8.9,1.7,3.2-1.6,12.4-2.4,13.6-1.2.3.3.1,3.1-.5,6.2-.8,4.9-.7,5.8.8,6.9s1.7,2.3,1.1,8.1c-.3,3.7-.3,7.3.1,7.9,1.5,2.2,5.6,3.6,14.2,5,11.4,1.8,11.1,1.9,11.1-1.7,0-5,2.3-2.9,4,3.7.8,3.2,2,6.5,2.7,7.2a4.56,4.56,0,0,1,1.3,2.7,7.48,7.48,0,0,0,1.8,3.4c1.4,1.8,6.7,3.1,31.3,8,51.7,10.4,72.9,14.2,76.7,13.9,3.5-.3,3.7-.5,11.8-15.3,4.6-8.3,8.9-15.7,9.6-16.7,1.1-1.4,5.1-1.7,31.9-2.2l30.5-.6,4.2,3.8a36.84,36.84,0,0,0,7.4,5.4c1.8.9,8.7,4.3,15.3,7.6,20.4,10.2,35.6,14.5,44.8,12.8,4.7-.9,12.8-8.2,16.9-15.4,1.8-3.1,4.2-7.2,5.5-9.1s2.3-4.3,2.3-5.4c0-2,.4-2,22.3-1.3,41.8,1.3,109.3,6.5,124.4,9.6,19.9,4.1,68.7,10.6,102.3,13.6,15.3,1.3,19.5,2,24.5,4.2,8.2,3.5,96.5,47,98,48.2,1,.8.7,2.8-1.1,8.8-3.9,12.5-3.7,12.8,6.6,13.4l5.5.3,4.4-6.8c4-6.2,4.7-6.8,7-6.2,2.7.7,14.9,5.8,56.6,23.5,48.1,20.4,112.8,46.8,163,66.5,47.4,18.5,54.7,21.3,100.5,38.5,22.3,8.4,40.9,15.6,41.5,16.1s.2.9-.8.9a2.58,2.58,0,0,0-2.3,1.5,3.29,3.29,0,0,1-2.8,1.5,7.54,7.54,0,0,0-3.5.9c-1.7,1.1.8,1.9,7.4,2.3,3,.2,4.2.8,5,2.6s1.7,2.2,6,2.2c8.1,0,12.4-1,13-3.1s5.1-2.6,5.8-.7c.7,2.3,84.9-.1,87.3-2.5.3-.3.3-1.5-.1-2.7-.5-1.4-4.3-3.9-12.1-7.8-6.3-3.1-11.4-6.2-11.4-6.8s-8-4.9-17.7-9.7C1084.6,566,1042.9,544.9,989.5,515c-14.5-8.1-70.2-40.6-92.3-53.9l-14.4-8.5,10.6-1.7c5.9-1,13.7-2.6,17.4-3.7s11.9-3,18.2-4.2a373,373,0,0,0,48.3-12.5c12.6-4.1,16.1-4.8,42.5-8,67.6-8.4,99.8-11.8,149.8-15.9l53.1-4.4,6.4-3.2c13.8-7,29.2-20.7,34.3-30.8a23.75,23.75,0,0,1,5.5-7c3.7-2.7,7.1-12.7,7.1-21.1a46.68,46.68,0,0,1,1.7-11.2c1.4-4.4,1.7-8.5,1.5-22.4-.4-25.2-2.2-30.9-15.1-49.5-20.3-29.1-37.1-43.1-74.1-61.6-39.3-19.6-71.3-25.8-120.5-23.4-39.5,2-37.6,1.6-89,17.7s-93,29.8-120,39.6a761.16,761.16,0,0,1-73,22.2c-39.2,10-54.3,12.4-87,14.1l-13,.6-2-6.3c-2.7-8.9-14.1-31.6-21.2-42.4-13.2-20-32.4-39.9-44.5-45.9l-7.1-3.6H597.1a242,242,0,0,0-25.1,1.2,197.15,197.15,0,0,1-21,.9c-10.5-.2-31,1-45.2,2.5l-5.8.7,1.4-3.9c.8-2.3,2-4,3.2-4.3,2-.4,4.3-2.9,4.4-4.7,0-.8-5-1-17.1-.6-12.8.4-17,.2-16.5-.7a3,3,0,0,1,2.2-1.1c.8,0,1.4-.5,1.4-1s-2.7-1-6-1c-5.6,0-7.5,1-4.9,2.6.8.5.8.8,0,1.4-.7.4.6,1.2,2.9,1.9,4.5,1.3,4.4.8,1.5,9.1-1.5,4.3-2.3,4.4-27.7,5.5l-17.7.7-62.9-42C292.8,87.6,245.6,55.5,200.3,23.9c-28-19.6-31.6-21.9-36-22.3C154.5.5,124.2.3,116.1,1.1Z" transform="translate(-0.56 -0.61)"/></svg>