<svg xmlns="http://www.w3.org/2000/svg" viewBox="0 0 298 232"><defs><style>.cls-1{fill:none;}.cls-1,.cls-2,.cls-3,.cls-4{stroke:#c1c1c1;stroke-miterlimit:10;}.cls-2{fill:#4a4a49;}.cls-3{fill:#666;}.cls-4{fill:#999;}</style></defs><title>pakistan</title><g id="Layer_2" data-name="Layer 2"><g id="Layer_1-2" data-name="Layer 1"><polygon class="cls-1" points="41.54 0.88 92.06 0.88 151.22 0.88 184.7 0.88 188.18 0.88 223.33 0.88 235.03 0.88 255.4 0.88 272.33 0.88 297.5 0.88 297.5 0.5 0.5 0.5 0.5 0.88 32.92 0.88 41.54 0.88"/><polygon class="cls-2" points="129.72 88.27 121.31 99.76 121.34 99.72 129.72 88.27"/><polygon class="cls-2" points="64.76 185.57 74.32 155.92 64.8 185.45 64.76 185.57"/><polygon class="cls-2" points="3.5 10.99 10.29 12.93 13.61 12.93 21.05 10.83 26.63 10.1 33.1 10.67 35.61 11.15 36.42 8.24 34.72 5.73 33.63 2.8 32.92 0.88 0.5 0.88 0.5 10.55 0.99 10.75 3.5 10.99"/><polygon class="cls-2" points="264.36 223.46 263.84 219.64 265.88 218.62 264.1 217.6 264.01 215.65 265.2 213.1 264.96 209.88 263.9 206.63 262.63 205.78 261.66 200.49 264.07 199 264.92 197.74 266.74 197.74 264.79 197.31 262.17 197.69 260.77 197.61 261.03 195.49 259.96 193.63 260.35 191.42 260.94 190.96 262.42 191.3 264.28 189.44 265.18 188 263.19 189.22 261.83 188.59 259.12 188.93 258.27 187.11 257.98 188.5 257.85 190.75 256.24 195.07 257.89 197.14 257.51 201.12 255.77 202.9 255.69 204.13 251.88 206.07 246.08 209.67 243.37 210.6 239.31 209.72 230.67 202.77 227.11 198.11 227.07 197.31 226.01 197.4 224.53 196.59 219.57 191.64 219.15 190.11 219.57 188.88 220.93 188.76 221.35 189.44 222.71 189.01 222.66 191.51 224.53 191.72 225.75 190.66 226.48 190.58 227.7 191.34 227.96 190.5 232.57 186.85 233.97 186.81 236.13 183.51 236.81 183.63 237.69 181.47 235.41 181.31 234.73 180.93 235.07 181.65 234.86 182.62 230.2 184.61 227.49 184.61 225.38 185.34 218.07 182.79 214.59 179.14 213.15 178.46 213.32 176.16 215.53 173.28 217.99 171.92 214.85 172.43 211.72 174.42 209.92 175.57 210.18 174.21 206.19 172.26 202.96 172.34 200.92 172.51 200.16 170.13 199.22 170.13 198.54 169.88 199.39 169.29 199.48 167.76 199.05 167.33 198.45 163.35 195.95 160.52 195.99 158.23 192.69 159.71 190.82 159.67 190.78 158.87 191.38 158.65 191 158.27 191.38 156.41 190.39 153.92 188.01 152.05 184.7 152.13 181.98 153.15 178.76 152.73 177.91 152.05 177.57 152.9 175.79 152.9 174.09 154 172.31 153.49 169.33 153.49 166.79 155.95 165 155.95 163.47 154.85 161.69 154.85 161.01 153.57 159.82 153.32 159.57 154.25 158.04 154.25 155.83 152.81 154.9 154 154.64 155.19 153.37 155.19 152.01 155.02 150.14 155.53 149.04 155.19 146.58 155.02 144.96 156.38 144.03 156.72 143.86 155.7 141.31 155.87 138.08 157.82 137.06 157.4 137.15 155.78 135.84 155.78 135.19 155.78 134.69 156.72 132.99 157.65 129.25 156.29 126.45 155.28 125.34 153.32 123.9 153.57 123.39 155.53 122.71 155.62 121.1 154.25 120.08 154.59 118.13 153.92 113.2 153.75 109.72 152.22 103.52 152.64 100.55 149.84 99.62 149.76 96.98 151.96 94.86 150.35 92.4 150.44 86.45 150.52 86.03 149.33 84.76 148.48 84.58 145.51 82.38 141.26 81.19 137.19 79.15 134.3 78.9 133.11 77.88 133.2 77.88 132.43 74.06 131.92 71.76 132.6 68.79 134.81 66.5 134.89 66.24 133.88 66.16 135.15 61.49 138.04 57.58 141.26 53.17 138.29 49.43 137.36 46.71 137.78 45.61 138.38 41.7 134.89 39.83 134.64 38.05 133.45 35.42 132.86 32.11 129.38 33.47 128.19 33.13 127.17 31 127 30.49 126.23 26.93 126.06 25.74 124.79 22.85 123.86 18.78 124.28 16.48 122.92 13.09 115.36 12.66 113.58 11.64 113.92 9.6 112.22 10.12 111.63 10.88 112.14 11.73 112.14 10.54 110.1 8.84 110.35 7.65 109.59 7.31 106.11 3.24 101.18 2.98 99.06 0.6 95.92 0.5 95.86 0.5 135.24 1.03 136 2.05 136 3.49 138.21 3.49 139.48 5.53 144.92 5.53 146.19 4.25 145.85 5.7 148.57 11.39 155.7 11.9 158.59 13.77 161.22 14.38 160.82 14.95 160.46 14.95 158.16 14.19 157.23 13.68 155.62 14.02 152.22 14.95 152.22 15.55 152.64 14.95 149.24 15.46 149.24 15.04 147.46 15.8 146.87 15.8 145.94 16.65 145.85 16.99 144.83 17.84 144.83 19.8 146.36 19.96 147.55 20.9 147.55 21.32 148.31 20.56 151.96 20.05 151.96 20.47 155.78 21.24 155.78 22.43 157.99 21.58 163.51 20.3 163.77 20.34 163.84 20.64 164.36 22.51 164.19 21.49 165.47 21.41 166.57 22.43 168.35 23.02 168.1 23.08 168.14 23.95 168.69 24.89 167.67 25.57 172.77 27.35 172 29.05 172.17 30.83 172.68 35.42 169.12 39.24 169.97 40.85 169.63 41.79 170.13 44 169.97 45.02 171.24 47.39 170.98 50.7 170.39 51.22 169.37 51.89 169.2 51.72 167.42 53.17 167.42 54.1 166.74 55.12 168.18 58.01 165.12 57.41 163.77 56.48 163.43 57.5 161.81 63.95 156.29 63.95 153.24 70.92 149.04 71.55 147.94 71.58 146.31 71.6 145.32 71.98 144.26 72.57 144.98 73.16 144.26 73.67 141.21 74.6 141.29 75.36 141.08 75.92 141.93 75.45 141.84 74.98 142.22 75.53 142.91 75.11 144.17 75.62 144.47 75.33 147.63 74.39 149.42 74.33 150.78 74.31 151.11 74.91 151.62 75.92 151.28 76.27 152.81 76.51 155.61 77.11 162.32 80.85 166.91 81.19 168.44 87.47 173.7 90.28 174.47 91.72 173.79 93.84 173.7 98.85 174.64 101.65 174.04 103.18 174.13 106.33 178.29 107.17 181.17 109.13 182.96 110.15 184.99 114.31 188.39 116.35 188.76 117.07 189.56 116.94 191.72 115.59 194.18 115.8 195.62 115.41 197.31 111.25 203.93 108.53 206.4 107.29 209 105.98 210.14 104.71 214.42 103.39 214.29 102.21 213.65 102.42 212.43 102.97 211.32 101.95 210.94 100.85 211.83 99.5 214.29 98.99 214.42 99.79 215.85 98.48 216.19 96.58 219.84 96.58 221.78 95.86 223.56 96.32 223.69 97.38 225.72 96.74 225.85 98.14 229.87 99.07 230.72 98.77 231.5 267.91 231.5 267.75 229.58 264.36 223.46"/><polygon class="cls-3" points="275.75 65.14 278.66 61.9 278 62.63 275.75 65.14"/><polygon class="cls-3" points="277.04 7.62 280.04 9.64 280.12 12.63 282.06 14.01 283.19 15.54 287.72 16.11 292.17 16.03 294.27 16.6 294.76 19.18 297.5 20.1 297.5 0.88 272.33 0.88 277.04 7.62"/><polygon class="cls-3" points="188.18 0.88 184.7 0.88 185.87 1.39 188.18 0.88"/><polygon class="cls-3" points="224.62 4.14 226.64 4.95 229.47 4.95 231.41 3.49 231.82 2.36 235.03 0.88 223.33 0.88 224.62 2.6 224.62 4.14"/><polygon class="cls-3" points="33.63 2.8 35.96 1.47 41.46 1.14 41.54 0.88 32.92 0.88 33.63 2.8"/><polygon class="cls-3" points="118.64 22.82 120.42 24.2 122.28 24.2 123.73 22.82 125.68 22.82 128.19 24.68 128.83 26.3 129.8 27.19 130.94 25.98 134.17 25.49 135.79 23.63 136.11 22.18 137.57 20.88 137 19.35 140.48 17.48 144.85 16.6 145.25 15.46 146.96 14.09 148.73 13.68 149.46 10.69 149.54 7.86 152.13 5.11 152.13 2.76 151.08 1.95 151.22 0.88 92.06 0.88 92.35 2.36 93.4 3.17 95.75 2.6 99.95 3.57 104.48 9.88 109.42 10.29 112.25 11.5 114.03 14.65 113.22 16.35 114.19 19.1 114.11 20.8 115.03 22.56 116.13 22.18 118.64 22.82"/><polygon class="cls-3" points="297.5 54.31 291.93 50.57 289.58 50.57 288.13 53.24 285.29 53.41 281.98 56.4 278.66 61.9 275.75 65.14 274.37 64.89 272.27 66.27 270.17 67 266.61 70.39 267.25 71.36 268.38 75.49 267.82 81.07 267.5 83.74 265.71 85.12 262.48 88.68 263.94 89.81 264.02 91.91 262.8 94.66 259.16 96.44 256.66 100 256.17 103.64 254.88 106.07 249.7 109.71 247.51 116.35 243.95 120.31 238.05 120.63 233.84 122.82 232.22 122.49 231.74 120.31 229.31 119.26 227.85 120.31 225.75 121.36 225.27 123.3 222.27 127.59 220.57 128.16 218.79 132.69 218.79 135.52 220.66 135.44 223.32 136.33 224.54 135.68 226.64 135.76 228.26 139.24 228.1 141.99 228.58 146.12 232.22 148.46 234.41 148.3 235.94 149.6 235.38 151.13 237.56 154.05 240.07 161.16 239.75 162.78 240.64 163.84 238.53 164.56 236.03 166.1 234.97 164.8 235.86 163.19 233.28 164 232.38 164.97 227.94 166.58 220.25 166.18 218.39 167.15 216.69 166.75 215.72 169.58 214.18 169.98 211.84 171.52 211.72 174.42 214.85 172.43 217.99 171.92 215.53 173.28 213.32 176.16 213.15 178.46 214.59 179.14 218.07 182.79 225.38 185.34 227.49 184.61 230.2 184.61 234.86 182.62 235.07 181.65 234.73 180.93 235.41 181.31 237.69 181.47 236.81 183.63 236.13 183.51 233.97 186.81 232.57 186.85 227.96 190.5 227.7 191.34 226.48 190.58 225.75 190.66 224.53 191.72 222.66 191.51 222.71 189.01 221.35 189.44 220.93 188.76 219.57 188.88 219.15 190.11 219.57 191.64 224.53 196.59 226.01 197.4 227.07 197.31 227.11 198.11 230.67 202.77 239.31 209.72 243.37 210.6 246.08 209.67 251.88 206.07 255.69 204.13 255.77 202.9 257.51 201.12 257.89 197.14 256.24 195.07 257.85 190.75 257.98 188.5 258.27 187.11 259.12 188.93 261.83 188.59 263.19 189.22 265.18 188 264.28 189.44 262.42 191.3 260.94 190.96 260.35 191.42 259.96 193.63 261.03 195.49 260.77 197.61 262.17 197.69 264.79 197.31 266.74 197.74 264.92 197.74 264.07 199 261.66 200.49 262.63 205.78 263.9 206.63 264.96 209.88 265.2 213.1 264.01 215.65 264.1 217.6 265.88 218.62 263.84 219.64 264.36 223.46 267.75 229.58 267.91 231.5 297.5 231.5 297.5 54.31"/><polygon class="cls-4" points="277.71 60.21 274.88 59.52 272.16 60.58 268.76 59.84 267.38 56.96 263.45 55.34 259.23 54.32 255.2 50.65 254.63 47.34 252.85 39.73 250.83 36.42 250.75 32.94 252.61 32.13 252.93 29.78 256.09 27.76 256.01 25.01 252.77 24.12 252.13 21.86 249.13 20.07 246.06 17.48 243.79 14.65 241.53 15.46 239.91 16.11 238.29 14.57 237.81 10.12 243.23 6.48 242.49 4.57 239.27 5.22 236.68 3.77 232.95 5.71 230.2 8.14 227.12 8.14 225.34 10.9 223.23 13 228.09 20.13 228.41 25 223.07 31.96 225.82 34.55 225.82 37.63 222.91 42.01 218.69 42.01 214.64 40.39 211.89 42.17 213.13 45.07 215.48 46.37 216.85 49.44 216.37 51.38 213.7 52.84 211.19 53.08 210.3 54.7 209.98 58.66 209.17 61.25 209.09 62.79 208.28 63.76 209.13 68.75 206.7 72.31 204.56 69.58 203.26 69.58 203.1 71.12 200.35 70.96 199.05 70.07 196.38 70.31 195.66 71.77 191.45 75 193.31 75.57 192.02 77.19 187.89 79.05 186.59 78.16 183.85 78.73 183.04 80.43 182.55 82.21 180.45 82.93 178.99 84.79 179.15 87.87 179.96 91.51 179.8 93.86 180.69 96.04 180.2 98.14 175.76 100 171.87 99.92 168.31 100.41 162.32 100.73 158.36 101.78 156.99 102.92 153.43 102.75 149.67 103.75 136.7 104.07 121.34 99.72 121.31 99.76 127.13 107.53 128.43 110.12 131.34 113.19 134.17 114.73 135.14 115.86 138.86 116.18 140.97 116.99 141.29 118.21 144.37 118.53 144.45 122.33 145.25 124.92 145.42 128 145.98 130.02 148.73 129.86 151.65 131.8 151.97 136.17 150.35 137.7 147.44 136.57 142.02 138.19 140.89 139.4 137.49 140.78 136.36 142.96 136.92 144.9 135.22 147.25 136.28 150 135.79 153.97 135.84 155.78 137.15 155.78 137.06 157.4 138.08 157.82 141.31 155.87 143.86 155.7 144.03 156.72 144.96 156.38 146.58 155.02 149.04 155.19 150.14 155.53 152.01 155.02 153.37 155.19 154.64 155.19 154.9 154 155.83 152.81 158.04 154.25 159.57 154.25 159.82 153.32 161.01 153.57 161.69 154.85 163.47 154.85 165 155.95 166.79 155.95 169.33 153.49 172.31 153.49 174.09 154 175.79 152.9 177.57 152.9 177.91 152.05 178.76 152.73 181.98 153.15 184.7 152.13 188.01 152.05 190.39 153.92 191.38 156.41 191 158.27 191.38 158.65 190.78 158.87 190.82 159.67 192.69 159.71 195.99 158.23 195.95 160.52 198.45 163.35 199.05 167.33 199.48 167.76 199.39 169.29 198.54 169.88 199.22 170.13 200.16 170.13 200.92 172.51 202.96 172.34 206.19 172.26 210.18 174.21 209.92 175.57 211.72 174.42 211.84 171.52 214.18 169.98 215.72 169.58 216.69 166.75 218.39 167.15 220.25 166.18 227.94 166.58 232.38 164.97 233.28 164 235.86 163.19 234.97 164.8 236.03 166.1 238.53 164.56 240.64 163.84 239.75 162.78 240.07 161.16 237.56 154.05 235.38 151.13 235.94 149.6 234.41 148.3 232.22 148.46 228.58 146.12 228.1 141.99 228.26 139.24 226.64 135.76 224.54 135.68 223.32 136.33 220.66 135.44 218.79 135.52 218.79 132.69 220.57 128.16 222.27 127.59 225.27 123.3 225.75 121.36 227.85 120.31 229.31 119.26 231.74 120.31 232.22 122.49 233.84 122.82 238.05 120.63 243.95 120.31 247.51 116.35 249.7 109.71 254.88 106.07 256.17 103.64 256.66 100 259.16 96.44 262.8 94.66 264.02 91.91 263.94 89.81 262.48 88.68 265.71 85.12 267.5 83.74 267.82 81.07 268.38 75.49 267.25 71.36 266.61 70.39 270.17 67 272.27 66.27 274.37 64.89 275.75 65.14 278 62.63 277.71 60.21"/><polygon class="cls-3" points="294.27 16.6 292.17 16.03 287.72 16.11 283.19 15.54 282.06 14.01 280.12 12.63 280.04 9.64 277.04 7.62 272.33 0.88 255.4 0.88 250.45 2.96 242.49 4.57 243.23 6.48 237.81 10.12 238.29 14.57 239.91 16.11 241.53 15.46 243.79 14.65 246.06 17.48 249.13 20.07 252.13 21.86 252.77 24.12 256.01 25.01 256.09 27.76 252.93 29.78 252.61 32.13 250.75 32.94 250.83 36.42 252.85 39.73 254.63 47.34 255.2 50.65 259.23 54.32 263.45 55.34 267.38 56.96 268.76 59.84 272.16 60.58 274.88 59.52 277.71 60.21 278 62.63 278.66 61.9 281.98 56.4 285.29 53.41 288.13 53.24 289.58 50.57 291.93 50.57 297.5 54.31 297.5 20.1 294.76 19.18 294.27 16.6"/><polygon class="cls-3" points="136.7 104.07 149.67 103.75 153.43 102.75 156.99 102.92 158.36 101.78 162.32 100.73 168.31 100.41 171.87 99.92 175.76 100 180.2 98.14 180.69 96.04 179.8 93.86 179.96 91.51 179.15 87.87 178.99 84.79 180.45 82.93 182.55 82.21 183.04 80.43 183.85 78.73 186.59 78.16 187.89 79.05 192.02 77.19 193.31 75.57 191.45 75 195.66 71.77 196.38 70.31 199.05 70.07 200.35 70.96 203.1 71.12 203.26 69.58 204.56 69.58 206.7 72.31 209.13 68.75 208.28 63.76 209.09 62.79 209.17 61.25 209.98 58.66 210.3 54.7 211.19 53.08 213.7 52.84 216.37 51.38 216.85 49.44 215.48 46.37 213.13 45.07 211.89 42.17 214.64 40.39 218.69 42.01 222.91 42.01 225.82 37.63 225.82 34.55 223.07 31.96 228.41 25 228.09 20.13 223.23 13 225.34 10.9 227.12 8.14 230.2 8.14 232.95 5.71 236.68 3.77 239.27 5.22 242.49 4.57 250.45 2.96 255.4 0.88 235.03 0.88 231.82 2.36 231.41 3.49 229.47 4.95 226.64 4.95 224.62 4.14 224.62 2.6 223.33 0.88 188.18 0.88 185.87 1.39 184.7 0.88 151.22 0.88 151.08 1.95 152.13 2.76 152.13 5.11 149.54 7.86 149.46 10.69 148.73 13.68 146.96 14.09 145.25 15.46 144.85 16.6 140.48 17.48 137 19.35 137.57 20.88 136.11 22.18 135.79 23.63 134.17 25.49 130.94 25.98 129.8 27.19 128.83 26.3 128.19 24.68 125.68 22.82 123.73 22.82 122.28 24.2 120.42 24.2 118.64 22.82 116.13 22.18 115.03 22.56 115.16 22.82 115 25.98 115.24 27.52 114.43 29.22 115.89 31.16 115.32 31.72 115.48 33.18 112.57 35.12 110.14 35.77 111.11 37.31 112.97 38.76 110.87 41.76 111.44 42.24 112.17 46.29 112.17 48.47 115.97 49.36 116.94 49.36 113.46 53.65 112.9 56.56 115.89 62.38 117.51 67.64 116.7 69.18 117.83 71.2 118.15 75.33 127.94 75.49 129.72 79.37 129.48 82.45 130.61 86.9 129.72 88.27 121.34 99.72 136.7 104.07"/><polygon class="cls-3" points="2.98 99.06 3.24 101.18 7.31 106.11 7.65 109.59 8.84 110.35 10.54 110.1 11.73 112.14 10.88 112.14 10.12 111.63 9.6 112.22 11.64 113.92 12.66 113.58 13.09 115.36 16.48 122.92 18.78 124.28 22.85 123.86 25.74 124.79 26.93 126.06 30.49 126.23 31 127 33.13 127.17 33.47 128.19 32.11 129.38 35.42 132.86 38.05 133.45 39.83 134.64 41.7 134.89 45.61 138.38 46.71 137.78 49.43 137.36 53.17 138.29 57.58 141.26 61.49 138.04 66.16 135.15 66.24 133.88 66.5 134.89 68.79 134.81 71.76 132.6 74.06 131.92 77.88 132.43 77.88 133.2 78.9 133.11 79.15 134.3 81.19 137.19 82.38 141.26 84.58 145.51 84.76 148.48 86.03 149.33 86.45 150.52 92.4 150.44 94.86 150.35 96.98 151.96 99.62 149.76 100.55 149.84 103.52 152.64 109.72 152.22 113.2 153.75 118.13 153.92 120.08 154.59 121.1 154.25 122.71 155.62 123.39 155.53 123.9 153.57 125.34 153.32 126.45 155.28 129.25 156.29 132.99 157.65 134.69 156.72 135.19 155.78 135.84 155.78 135.79 153.97 136.28 150 135.22 147.25 136.92 144.9 136.36 142.96 137.49 140.78 140.89 139.4 142.02 138.19 147.44 136.57 150.35 137.7 151.97 136.17 151.65 131.8 148.73 129.86 145.98 130.02 145.42 128 145.25 124.92 144.45 122.33 144.37 118.53 141.29 118.21 140.97 116.99 138.86 116.18 135.14 115.86 134.17 114.73 131.34 113.19 128.43 110.12 127.13 107.53 121.31 99.76 129.72 88.27 130.61 86.9 129.48 82.45 129.72 79.37 127.94 75.49 118.15 75.33 117.83 71.2 116.7 69.18 117.51 67.64 115.89 62.38 112.9 56.56 113.46 53.65 116.94 49.36 115.97 49.36 112.17 48.47 112.17 46.29 111.44 42.24 110.87 41.76 112.97 38.76 111.11 37.31 110.14 35.77 112.57 35.12 115.48 33.18 115.32 31.72 115.89 31.16 114.43 29.22 115.24 27.52 115 25.98 115.16 22.82 115.03 22.56 114.11 20.8 114.19 19.1 113.22 16.35 114.03 14.65 112.25 11.5 109.42 10.29 104.48 9.88 99.95 3.57 95.75 2.6 93.4 3.17 92.35 2.36 92.06 0.88 41.54 0.88 41.46 1.14 35.96 1.47 33.63 2.8 34.72 5.73 36.42 8.24 35.61 11.15 33.1 10.67 26.63 10.1 21.05 10.83 13.61 12.93 10.29 12.93 3.5 10.99 0.99 10.75 0.5 10.55 0.5 95.86 0.6 95.92 2.98 99.06"/><polygon class="cls-3" points="65.73 219.12 67.35 194.65 64.76 185.57 64.8 185.45 61.03 188.98 28.14 183.95 25.71 175.2 23.02 172.01 23.08 168.14 23.02 168.1 22.43 168.35 21.41 166.57 21.49 165.47 22.51 164.19 20.64 164.36 20.34 163.84 18.48 163.84 14.85 161.89 14.38 160.82 13.77 161.22 11.9 158.59 11.39 155.7 5.7 148.57 4.25 145.85 5.53 146.19 5.53 144.92 3.49 139.48 3.49 138.21 2.05 136 1.03 136 0.5 135.24 0.5 231.5 24.29 231.5 33.82 228.65 65.73 219.12"/><polygon class="cls-3" points="18.48 163.84 20.34 163.84 20.3 163.77 21.58 163.51 22.43 157.99 21.24 155.78 20.47 155.78 20.05 151.96 20.56 151.96 21.32 148.31 20.9 147.55 19.96 147.55 19.8 146.36 17.84 144.83 16.99 144.83 16.65 145.85 15.8 145.94 15.8 146.87 15.04 147.46 15.46 149.24 14.95 149.24 15.55 152.64 14.95 152.22 14.02 152.22 13.68 155.62 14.19 157.23 14.95 158.16 14.95 160.46 14.38 160.82 14.85 161.89 18.48 163.84"/><polygon class="cls-3" points="25.71 175.2 28.14 183.95 61.03 188.98 64.8 185.45 74.32 155.92 76.51 155.61 76.27 152.81 75.92 151.28 74.91 151.62 74.31 151.11 74.33 150.78 73.32 150.73 73 146.75 71.58 146.31 71.55 147.94 70.92 149.04 63.95 153.24 63.95 156.29 57.5 161.81 56.48 163.43 57.41 163.77 58.01 165.12 55.12 168.18 54.1 166.74 53.17 167.42 51.72 167.42 51.89 169.2 51.22 169.37 50.7 170.39 47.39 170.98 45.02 171.24 44 169.97 41.79 170.13 40.85 169.63 39.24 169.97 35.42 169.12 30.83 172.68 29.05 172.17 27.35 172 25.57 172.77 24.89 167.67 23.95 168.69 23.08 168.14 23.02 172.01 25.71 175.2"/><polygon class="cls-3" points="73.32 150.73 74.33 150.78 74.39 149.42 75.33 147.63 75.62 144.47 75.11 144.17 75.53 142.91 74.98 142.22 75.45 141.84 75.92 141.93 75.36 141.08 74.6 141.29 73.67 141.21 73.16 144.26 72.57 144.98 71.98 144.26 71.6 145.32 71.58 146.31 73 146.75 73.32 150.73"/><polygon class="cls-3" points="98.14 229.87 96.74 225.85 97.38 225.72 96.32 223.69 95.86 223.56 96.58 221.78 96.58 219.84 98.48 216.19 99.79 215.85 98.99 214.42 99.5 214.29 100.85 211.83 101.95 210.94 102.97 211.32 102.42 212.43 102.21 213.65 103.39 214.29 104.71 214.42 105.98 210.14 107.29 209 108.53 206.4 111.25 203.93 115.41 197.31 115.8 195.62 115.59 194.18 116.94 191.72 117.07 189.56 116.35 188.76 114.31 188.39 110.15 184.99 109.13 182.96 107.17 181.17 106.33 178.29 103.18 174.13 101.65 174.04 98.85 174.64 93.84 173.7 91.72 173.79 90.28 174.47 87.47 173.7 81.19 168.44 80.85 166.91 77.11 162.32 76.51 155.61 74.32 155.92 64.76 185.57 67.35 194.65 65.73 219.12 33.82 228.65 33.48 231.5 98.77 231.5 99.07 230.72 98.14 229.87"/><polygon class="cls-3" points="33.82 228.65 24.29 231.5 33.48 231.5 33.82 228.65"/></g></g></svg>