<svg id="Layer_1" data-name="Layer 1" xmlns="http://www.w3.org/2000/svg" viewBox="0 0 298 232"><defs><style>.cls-1{fill:#4a4a49;}.cls-1,.cls-2,.cls-3{stroke:#c1c1c1;stroke-miterlimit:10;}.cls-2{fill:#666;}.cls-3{fill:#ce2d4f;}</style></defs><title>somaliaAfter</title><g id="Layer_1-2" data-name="Layer 1-2"><polygon class="cls-1" points="85.35 92.42 81.15 97.13 86.28 91.38 85.35 92.42"/><polygon class="cls-1" points="295.42 7.22 297.5 6.57 297.5 0.5 196.52 0.5 194.76 0.9 193.54 0.5 190.68 0.5 190.59 0.61 188.03 0.99 187.78 0.5 181.99 0.5 181.95 1.08 184.84 3.92 185.64 3.92 185.27 5.1 185.69 8.98 184.41 9.5 182.1 12.1 180.35 12.15 179.07 14.04 176.37 14.04 177.75 15.74 178.6 15.93 180.54 15.13 183.8 15.08 184.23 15.97 184.98 17.54 185.79 17.68 193.4 26.06 194.3 27.95 195.53 28.28 198.65 31.12 201.73 31.87 205.37 31.4 206.5 30.03 209.77 28.04 211.8 28 216.01 24.64 217.24 24.59 218 25.3 221.41 25.16 222.59 24.73 225.09 25.91 228.74 25.49 236.35 20.76 238.81 20.29 241.27 21.37 243.16 20.76 246.55 20.91 250.06 19.17 254.01 18.89 255.21 19.59 256.5 19.58 262.6 18.44 264.92 16.6 268.61 16.08 269.65 17.02 270.03 15.98 273.88 15.52 276.11 13.31 276.54 13.64 277.5 11.83 277.2 11.52 278.72 10.02 279.78 10.16 279.64 9.6 281.15 10.66 284.37 11.76 285.8 11.64 286.37 11.99 285.07 13.93 284.27 15.92 284.13 17.95 283.4 19.19 284.02 20.3 285.64 20.34 285.76 21.1 284.44 22.2 283.31 24.81 284.44 26.34 284.84 28.46 283.92 30.43 285.62 30.2 285.4 29.59 286.2 29.8 286.93 31.3 286.13 31.73 285.87 31.23 284.27 31.26 283.18 31.54 281.34 34.67 282.33 36.32 281.86 39.3 281.05 40.62 281.24 43.89 276.92 49.95 273.96 56.19 272.16 58.41 271.17 58.22 268.38 61.25 268.19 62.66 269.42 64.46 267.81 65.88 260.7 79.45 260.41 83.44 255.86 89.79 255.67 91.88 247.13 103.45 246.28 106.11 242.48 110 235.84 118.06 221.9 130.39 215.92 135.51 211.75 136.28 208.23 138.74 203.78 142.16 195.24 151.17 193.34 151.74 186.32 159.52 185.09 159.99 184.04 161.89 181.48 162.65 178.83 165.21 177.69 167.87 167.34 179.31 167.2 179.9 167.01 180.68 162.89 185.7 161.9 186.03 160.43 187.64 161.19 188.87 156.89 190.38 154.62 193.55 150.93 193.55 149.36 194.07 149.13 194.97 147.33 197.05 147.24 198.57 148.04 199.18 145.96 202.4 143.93 204.9 143.93 207.74 142.08 211.71 137.54 218.34 134.89 219.42 133.8 219.39 133.33 219.38 133.94 220.09 134.18 222.03 133.33 223.25 130.66 231.5 297.5 231.5 297.5 7.56 295.42 7.22"/><polygon class="cls-1" points="27.72 174.64 42.99 174.58 38.24 174.6 27.72 174.64"/><polygon class="cls-1" points="13.01 178.44 9.66 181.51 12.38 179.02 13.01 178.44"/><polygon class="cls-1" points="173.76 5.24 171.34 5.94 176.54 4.43 173.76 5.24"/><polygon class="cls-2" points="190.59 0.61 190.68 0.5 187.78 0.5 188.03 0.99 190.59 0.61"/><polygon class="cls-2" points="196.52 0.5 193.54 0.5 194.76 0.9 196.52 0.5"/><polygon class="cls-2" points="297.5 7.56 297.5 6.57 295.42 7.22 297.5 7.56"/><polygon class="cls-2" points="4.21 103.96 5.84 104.05 6.2 104.73 7.25 104.78 9.87 104.05 10.96 102.69 12.32 101.06 15.12 101.19 16.12 101.83 17.66 105 19.06 106.64 19.74 107.72 23.05 108.81 24.36 110.04 25.31 112.12 26.08 113.12 26.76 114.93 27.03 116.34 27.53 116.39 30.63 116.3 31.56 116.88 31.78 116.4 31.2 115.36 31.33 113.55 32.89 112.1 35.3 113.07 38.56 114.27 40.48 113.67 42.77 114.27 43.01 116.2 45.91 117.16 47.35 117.16 47.35 115.11 48.92 113.67 50.49 114.03 51.45 113.55 53.5 113.55 56.27 112.34 60.73 112.1 63.62 112.94 66.39 111.62 67.84 109.57 70.85 107.6 70.85 107.59 72.3 105.66 73.27 105.26 74.47 103.63 76.8 101.36 78.04 101.85 81.15 97.13 85.35 92.42 84.55 88.03 83.31 86.58 82.73 81.94 80.63 79.69 79.62 77.73 78.1 75.77 75.71 75.77 74.77 74.82 74.84 73.81 72.59 72.79 70.13 68.44 69.26 67.86 68.83 66.12 66.58 63.87 65.35 62.34 60.13 62.42 57.89 61.62 57.02 59.95 58.97 57.19 60.2 56.47 60.35 53.71 63.1 54.29 65.49 53.71 66.8 54.65 68.32 54.94 69.11 53.56 70.78 52.26 71.22 46.38 70.92 41.45 71.87 37.96 73.9 34.77 73.82 32.09 72.95 30.64 73.9 28.02 76.58 24.76 77.01 23.09 78.1 22.94 79.47 23.38 81.94 14.02 83.46 10.1 87.01 7.56 87.08 5.6 90.12 0.59 90.14 0.5 0.5 0.5 0.5 104.34 1.22 103.96 4.21 103.96"/><polygon class="cls-2" points="87.08 5.6 87.01 7.56 83.46 10.1 81.94 14.02 79.47 23.38 78.1 22.94 77.01 23.09 76.58 24.76 73.9 28.02 72.95 30.64 73.82 32.09 73.9 34.77 71.87 37.96 70.92 41.45 71.22 46.38 70.78 52.26 69.11 53.56 68.32 54.94 66.8 54.65 65.49 53.71 63.1 54.29 60.35 53.71 60.2 56.47 58.97 57.19 57.02 59.95 57.89 61.62 60.13 62.42 65.35 62.34 66.58 63.87 68.83 66.12 69.26 67.86 70.13 68.44 72.59 72.79 74.84 73.81 74.77 74.82 75.71 75.77 78.1 75.77 79.62 77.73 80.63 79.69 82.73 81.94 83.31 86.58 84.55 88.03 85.35 92.42 86.28 91.38 87.61 93.68 90.08 93.19 92.02 93.5 92.02 101.06 94.19 103.47 96.6 103.96 99.44 102.99 102.58 103.78 108.68 103.41 111.03 104.86 116.29 109.89 119.36 112 121.42 114.36 123.41 115.02 127.88 115.02 130.59 116.23 133.97 115.75 136.21 116.53 138.02 116.53 140.5 116.35 143.82 111.21 145.02 109.58 147.68 108.55 149.61 108.67 150.94 107.83 156.79 107.04 158.61 107.95 160.12 110.67 162.23 111.88 166.94 111.09 170.11 111.15 170.56 111.01 171.64 109.22 175.66 107.26 179.37 106.72 182.66 104.9 185.11 103.47 186.13 100.94 189.28 99.3 191.45 99.12 193.86 97.61 201.65 97.31 209.31 97.52 248.54 58.63 232.37 58.87 195.46 47.53 192.32 44.88 187.74 43.91 186.05 40.05 186.53 36.43 183.15 34.74 180.98 27.99 180.22 23.23 181.01 21.88 178.77 20.57 175.39 21.18 172.43 23.11 167.72 23.29 166.51 21.84 168.51 19 168.75 16.7 169.96 14.47 169.47 11.2 170.56 8.96 171.34 5.94 173.76 5.24 170.32 0.74 168.51 0.68 168.41 0.5 90.14 0.5 90.12 0.59 87.08 5.6"/><polygon class="cls-2" points="170.32 0.74 173.76 5.24 176.54 4.43 177.56 3.28 179.68 2.68 181.61 0.5 168.41 0.5 168.51 0.68 170.32 0.74"/><polygon class="cls-2" points="177.56 3.28 176.54 4.43 171.34 5.94 170.56 8.96 169.47 11.2 169.96 14.47 168.75 16.7 168.51 19 166.51 21.84 167.72 23.29 172.43 23.11 175.39 21.18 178.77 20.57 181.01 21.88 181.31 21.36 184.23 15.97 183.8 15.08 180.54 15.13 178.6 15.93 177.75 15.74 176.37 14.04 179.07 14.04 180.35 12.15 182.1 12.1 184.41 9.5 185.69 8.98 185.27 5.1 185.64 3.92 184.84 3.92 181.95 1.08 181.99 0.5 181.61 0.5 179.68 2.68 177.56 3.28"/><polygon class="cls-3" points="181.01 21.88 180.22 23.23 180.98 27.99 183.15 34.74 186.53 36.43 186.05 40.05 187.74 43.91 192.32 44.88 195.46 47.53 232.37 58.87 248.54 58.63 209.31 97.52 201.65 97.31 193.86 97.61 191.45 99.12 189.28 99.3 186.13 100.94 185.11 103.47 182.66 104.9 179.37 106.72 175.66 107.26 171.64 109.22 170.56 111.01 170.11 111.15 170.26 111.15 158.61 122.22 158.37 171.86 167.2 179.9 167.34 179.31 177.69 167.87 178.83 165.21 181.48 162.65 184.04 161.89 185.09 159.99 186.32 159.52 193.34 151.74 195.24 151.17 203.78 142.16 208.23 138.74 211.75 136.28 215.92 135.51 221.9 130.39 235.84 118.06 242.48 110 246.28 106.11 247.13 103.45 255.67 91.88 255.86 89.79 260.41 83.44 260.7 79.45 267.81 65.88 269.42 64.46 268.19 62.66 268.38 61.25 271.17 58.22 272.16 58.41 273.96 56.19 276.92 49.95 281.24 43.89 281.05 40.62 281.86 39.3 282.33 36.32 281.34 34.67 283.18 31.54 284.27 31.26 285.87 31.23 286.13 31.73 286.93 31.3 286.2 29.8 285.4 29.59 285.62 30.2 283.92 30.43 284.84 28.46 284.44 26.34 283.31 24.81 284.44 22.2 285.76 21.1 285.64 20.34 284.02 20.3 283.4 19.19 284.13 17.95 284.27 15.92 285.07 13.93 286.37 11.99 285.8 11.64 284.37 11.76 281.15 10.66 279.64 9.6 279.78 10.16 278.72 10.02 277.2 11.52 277.5 11.83 276.54 13.64 276.11 13.31 273.88 15.52 270.03 15.98 269.65 17.02 268.61 16.08 264.92 16.6 262.6 18.44 256.5 19.58 255.21 19.59 254.01 18.89 250.06 19.17 246.55 20.91 243.16 20.76 241.27 21.37 238.81 20.29 236.35 20.76 228.74 25.49 225.09 25.91 222.59 24.73 221.41 25.16 218 25.3 217.24 24.59 216.01 24.64 211.8 28 209.77 28.04 206.5 30.03 205.37 31.4 201.73 31.87 198.65 31.12 195.53 28.28 194.3 27.95 193.4 26.06 185.79 17.68 184.98 17.54 184.23 15.97 181.31 21.36 181.01 21.88"/><polygon class="cls-2" points="38.24 174.6 42.99 174.58 47.81 174.32 38.55 174.57 38.24 174.6"/><polygon class="cls-2" points="158.61 122.22 170.26 111.15 170.11 111.15 166.94 111.09 162.23 111.88 160.12 110.67 158.61 107.95 156.79 107.04 150.94 107.83 149.61 108.67 147.68 108.55 145.02 109.58 143.82 111.21 140.5 116.35 138.02 116.53 136.21 116.53 133.97 115.75 130.59 116.23 127.88 115.02 123.41 115.02 121.42 114.36 119.36 112 116.29 109.89 111.03 104.86 108.68 103.41 102.58 103.78 99.44 102.99 96.6 103.96 94.19 103.47 92.02 101.06 92.02 93.5 90.08 93.19 87.61 93.68 86.28 91.38 81.15 97.13 78.04 101.85 76.8 101.36 74.47 103.63 73.27 105.26 72.3 105.66 70.85 107.59 70.85 107.6 70.97 107.52 72.18 108.97 73.02 112.22 74.22 112.94 73.98 115.11 75.67 115.48 76.52 118.25 76.52 120.78 79.41 123.55 80.97 127.41 82.66 128.13 84.11 129.22 83.02 130.78 84.83 132.35 85.67 135 85.31 137.65 82.42 141.02 82.42 142.83 81.33 145.84 77 145.84 77.12 146.93 75.79 148.25 74.83 150.54 72.78 152.47 71.33 155.36 68.92 157.65 68.44 161.15 65.16 173.39 68.68 173.2 114.72 200.07 117.25 204.29 116.64 205.5 117.13 207.06 118.21 208.39 133.8 219.39 134.89 219.42 137.54 218.34 142.08 211.71 143.93 207.74 143.93 204.9 145.96 202.4 148.04 199.18 147.24 198.57 147.33 197.05 149.13 194.97 149.36 194.07 150.93 193.55 154.62 193.55 156.89 190.38 161.19 188.87 160.43 187.64 161.9 186.03 162.89 185.7 167.01 180.68 167.2 179.9 158.37 171.86 158.61 122.22"/><polygon class="cls-2" points="68.92 157.65 71.33 155.36 72.78 152.47 74.83 150.54 75.79 148.25 77.12 146.93 77 145.84 81.33 145.84 82.42 142.83 82.42 141.02 85.31 137.65 85.67 135 84.83 132.35 83.02 130.78 84.11 129.22 82.66 128.13 80.97 127.41 79.41 123.55 76.52 120.78 76.52 118.25 75.67 115.48 73.98 115.11 74.22 112.94 73.02 112.22 72.18 108.97 70.97 107.52 70.85 107.6 67.84 109.57 66.39 111.62 63.62 112.94 60.73 112.1 56.27 112.34 53.5 113.55 51.45 113.55 50.49 114.03 48.92 113.67 47.35 115.11 47.35 117.16 45.91 117.16 43.01 116.2 42.77 114.27 40.48 113.67 38.56 114.27 35.3 113.07 32.89 112.1 31.33 113.55 31.2 115.36 31.78 116.4 31.56 116.88 30.93 119.2 29.66 120.88 29.66 124.37 28.93 128.68 28.66 131.85 30.07 132.85 31.29 134.48 32.24 136.57 32.01 137.97 25.57 146.54 21.59 150.97 20.51 152.86 15.63 161.63 14.72 163.17 14.63 166.42 14.27 171.03 12.65 175.55 13.01 178.44 12.38 179.02 13.05 179.3 15.1 178.88 17.16 177.24 18.54 177.91 19.57 178.88 21.38 178.88 22.29 178.03 22.35 176.28 24.4 175.91 24.77 176.47 25.49 175.49 26.63 175.73 27.72 174.64 38.24 174.6 38.55 174.57 47.81 174.32 65.16 173.39 68.44 161.15 68.92 157.65"/><polygon class="cls-2" points="134.18 222.03 133.94 220.09 133.33 219.38 133.8 219.39 118.21 208.39 117.13 207.06 116.64 205.5 117.25 204.29 114.72 200.07 68.68 173.2 65.16 173.39 47.81 174.32 42.99 174.58 27.72 174.64 26.63 175.73 25.49 175.49 24.77 176.47 26.21 178.64 27.78 179.9 28.08 181.42 29.17 183.11 30.2 186.74 30.56 189.22 29.83 190.97 29.41 192.6 28.38 193.63 27.06 194.42 25.67 194.12 25.18 193.55 25.18 194.77 25.9 195.85 25.9 197.54 27.71 198.5 28.19 200.07 29.76 200.31 30.48 204.05 30.24 205.86 28.19 207.91 26.5 209.71 25.06 210.92 21.81 214.53 19.64 217.67 15.42 218.75 9.12 218.63 10.75 229.24 11.21 231.5 130.66 231.5 133.33 223.25 134.18 222.03"/><polygon class="cls-2" points="22.35 176.28 22.29 178.03 21.38 178.88 19.57 178.88 18.54 177.91 17.16 177.24 15.1 178.88 13.05 179.3 12.38 179.02 9.66 181.51 7.31 184.32 5.42 191.91 5.15 193.84 6.26 193.56 8.43 193.56 9.76 194.05 10.72 196.09 12.89 196.94 13.61 196.09 14.46 195.85 15.66 197.06 18.19 196.22 18.19 195.01 19.75 191.16 19.52 188.87 20.6 188.87 21.68 189.83 23.13 190.07 23.73 192 25.18 192.84 25.18 193.55 25.67 194.12 27.06 194.42 28.38 193.63 29.41 192.6 29.83 190.97 30.56 189.22 30.2 186.74 29.17 183.11 28.08 181.42 27.78 179.9 26.21 178.64 24.77 176.47 24.4 175.91 22.35 176.28"/><polygon class="cls-2" points="23.73 192 23.13 190.07 21.68 189.83 20.6 188.87 19.52 188.87 19.75 191.16 18.19 195.01 18.19 196.22 15.66 197.06 14.46 195.85 13.61 196.09 12.89 196.94 10.72 196.09 9.76 194.05 8.43 193.56 6.26 193.56 5.15 193.84 4.96 195.25 6.59 197.87 6.86 200.68 6.86 203.93 9.12 218.63 15.42 218.75 19.64 217.67 21.81 214.53 25.06 210.92 26.5 209.71 28.19 207.91 30.24 205.86 30.48 204.05 29.76 200.31 28.19 200.07 27.71 198.5 25.9 197.54 25.9 195.85 25.18 194.77 25.18 193.55 25.18 192.84 23.73 192"/><polygon class="cls-2" points="9.12 218.63 6.86 203.93 6.86 200.68 6.59 197.87 4.96 195.25 5.15 193.84 5.42 191.91 7.31 184.32 9.66 181.51 13.01 178.44 12.65 175.55 14.27 171.03 14.63 166.42 14.72 163.17 15.63 161.63 20.51 152.86 21.59 150.97 25.57 146.54 32.01 137.97 32.24 136.57 31.29 134.48 30.07 132.85 28.66 131.85 28.93 128.68 29.66 124.37 29.66 120.88 30.93 119.2 31.56 116.88 30.63 116.3 27.53 116.39 27.03 116.34 26.76 114.93 26.08 113.12 25.31 112.12 24.36 110.04 23.05 108.81 19.74 107.72 19.06 106.64 17.66 105 16.12 101.83 15.12 101.19 12.32 101.06 10.96 102.69 9.87 104.05 7.25 104.78 6.2 104.73 5.84 104.05 4.21 103.96 1.22 103.96 0.5 104.34 0.5 231.5 11.21 231.5 10.75 229.24 9.12 218.63"/></g></svg>