<svg id="Layer_1" data-name="Layer 1" xmlns="http://www.w3.org/2000/svg" viewBox="0 0 298 232.09"><defs><style>.cls-1{fill:#4a4a49;}.cls-1,.cls-2,.cls-3,.cls-4{stroke:#c1c1c1;stroke-miterlimit:10;}.cls-2{fill:#666;}.cls-3{fill:#ce2d4f;}.cls-4{fill:#999;}</style></defs><title>yemenAfter</title><g id="Layer_1-2" data-name="Layer 1-2"><polygon class="cls-1" points="5.3 129.96 7.24 130.78 4.59 129.66 5.3 129.96"/><polygon class="cls-1" points="89.74 160.05 86.95 160.86 92.96 159.12 89.74 160.05"/><path class="cls-1" d="M290,66.37v4.49l-1.31,1.2L286,74.85l-1.75-.71-3.61.6-5-.11L274.21,76l-2,2,.39,1.42-.28,1.81,1.37.77-.17,1.7-.71.16.16.6-3.5,5.2-1.75.16-2.3-1.42-2.46.49-3-.19-5.15,2.79-3.18-.11-1.87,3.07H247l-.77-.55-1.93.49-3.23.83-5.6,1.21-4.94,6-.44,3.62,1.2,1.21-.44.88.55,1.65-6.26,1.32-2.85,2.64-5.71,2.85-9,1.65-1.43,1.54-16,4.74-1.53-.17-2.68,1.31-3,4.92-4.21,3.5h-2l-.88-.82-1.37,1.31-2.08.44-1.81-1.42-2.24-.11-5.18,4.07-.33,1.76L161,140.86l-5.49.55L148.67,144l-2.85-.66-.88-1.1-4.17.22-.55-.88-2.3-.11-1.87.55-3.62,2.31-1.65,3.84-1.43.22-2.75,3.84-2.74,1.1-1.54-1.54h-2.85l-3,2.52-2.41.55L110,153.62l-.77,1-3,.44L105,152.63l-.5-3.63-3.07-3.29-1.54-4,1.54-1-.22-4.06-3.73-3.4-1.87-13.5-3.51-4.5-.11-2.2H90.45l-1-2.09,2.31.66v-1.54h1.65l.22-4.39-1.32-7.36-.93-2.67L88.8,88.31,84.19,87l-1-6.26H81.55l-11-11.08-.22-3.74-3-1.92L63.88,51.53,62,50.77l.44-2.09L58.83,48l-.11-2.19L54.44,42.2H53l-2-2.85-2.93-.23-2.46-1L38.25,30.2l-.44-2-2.63-2.3-.6-5.53-1.42-5.25-1.09-2.3,1.09-1L34.26,7l-.87-1.59-.88-5H.5V10.75l1.58,1.6,2.52,1v.3l-.18,1.23L4,16.18l.77,1.1L4.43,18l.57.7-.06.6.6.82,1,4,2.78,3.34v1.39h-.7l-.38-1L7,26.57,6.53,27l.38,2.66,3.51,10.43.77,5.71-.85,5.39,2,6.24,2.61,5,2.41.55,6.37,4.28V70l3,.11,3.18,1.65v2H31l3.4,3.62,6,15.92,2,10.43,1.1.33.77,3.84v1.32l2,.66L47.49,113l.77,4.5,2.52.66L50.49,114l-.66.11.22-3,1.1-.44,2.63,3.73-1,1.1,2.43,3.66,1.7,1.7,1.42-1,2.14-.28.93.55,1.86-.66,2.68,3,1.37,1.7,4,.93.88,1.53,4.92,5.47,2.08,3.67,3,1.26,2.08,2.57h1.2l.11-.88,1,1.37,2.41,6,1.81.49,2.08,2.68-.55.88L93.65,153h1.53l1.59.82,1.15-1,.49.82.77.36h.06l-.06,1.09,3.34,3.29h.93l-.43,1.37.49,4.49-1.48.6-2.68,3-2,0-1.48,2.19h-3.1l1.59,2,1,.22,2.24-.93,3.78-.06.49,1,.88,1.82.93.16,8.81,9.69,1,2.19,1.42.38,3.61,3.28,3.56.88,4.21-.55,1.31-1.59,3.78-2.3,2.36,0,4.87-3.88,1.42-.06.87.82,3.94-.16,1.37-.49,2.9,1.37,4.21-.49,8.81-5.47,2.85-.55,2.85,1.26,2.19-.71,3.92.18,4.05-2,4.57-.32,1.39.81h1.5l7.06-1.31,2.68-2.14,4.27-.6,1.21,1.09.43-1.2,4.46-.53,2.58-2.56.49.38,1.12-2.1-.35-.35,1.77-1.74,1.22.16-.16-.65L214,166.2l3.73,1.28,1.66-.13.65.41-1.5,2.23-.93,2.31-.16,2.34-.84,1.44.71,1.28,1.88,0,.14.87-1.53,1.28-1.3,3,1.3,1.77.46,2.45-1.06,2.28,2-.27-.25-.71.93.25.84,1.74-.92.49-.3-.57h-1.85l-1.27.33L214.22,194l1.15,1.91-.55,3.45-.93,1.53.22,3.78-5,7-3.43,7.22-2.08,2.58-1.15-.22-3.23,3.5L199,226.4l1.43,2.08-1.87,1.65-.72,1.37H297.5V59.32l-2.22.59Zm-55.69,96.5-3.77-.63,3-.94,3.87,1.15Zm30.66-5-2.2.16-3.14,2-4.35.68-3.09-.63-1.78-1.42-1.89-1,1.78-.94.26-2.26,1.68-1.42,1.83.26.78,1.47,1.83.42,2-.58,2.88-.63,1.94,1,2.31.47.21,1.1Z" transform="translate(0 0.09)"/><polygon class="cls-2" points="34.26 7.13 33.16 11.9 32.07 12.88 33.16 15.18 34.59 20.43 35.19 25.96 37.82 28.26 38.25 30.29 45.64 38.17 48.11 39.21 51.04 39.44 53.02 42.29 54.44 42.29 58.72 45.92 58.83 48.11 62.45 48.77 62.02 50.86 63.88 51.62 67.29 64.14 70.36 66 70.58 69.74 81.56 80.82 83.2 80.82 84.19 87.08 88.8 88.4 91.38 95.82 93.97 96.09 96.17 97.03 97.73 94.1 101.6 91.59 98.99 86.68 100.87 79.77 104.74 78.1 109.13 81.65 118.23 81.97 130.68 86.99 143.64 93.26 144.27 106.44 170.63 70.78 225.49 54.38 266.74 42.05 268.83 10.42 266.02 0.59 263.33 0.59 260.66 3.09 244.27 0.59 32.51 0.59 33.38 5.55 34.26 7.13"/><polygon class="cls-2" points="263.33 0.59 244.27 0.59 260.66 3.09 263.33 0.59"/><polygon class="cls-2" points="266.02 0.59 268.83 10.42 266.74 42.05 225.49 54.38 224.63 61.53 237.83 78.29 235.94 84.57 244.29 94.49 246.21 94 246.98 94.54 249.84 94.54 251.7 91.47 254.88 91.58 260.03 88.79 262.94 89.01 265.4 88.52 267.7 89.94 269.45 89.78 272.95 84.58 272.79 83.98 273.5 83.81 273.66 82.12 272.29 81.35 272.57 79.54 272.18 78.12 274.21 76.1 275.52 74.73 280.56 74.84 284.17 74.24 285.92 74.95 288.66 72.15 289.97 70.95 289.97 66.46 295.28 60 297.5 59.41 297.5 0.59 266.02 0.59"/><polygon class="cls-2" points="225.49 54.38 266.74 42.05 225.49 54.38 225.49 54.38"/><polygon class="cls-3" points="144.27 106.44 143.64 93.26 130.68 86.99 118.23 81.97 109.13 81.65 104.74 78.1 100.87 79.77 98.99 86.68 101.6 91.59 97.73 94.1 96.17 97.03 93.97 96.09 91.38 95.82 92.31 98.5 93.63 105.85 93.41 110.24 91.76 110.24 91.76 111.78 89.46 111.12 90.45 113.21 91.98 113.21 92.09 115.4 95.61 119.9 97.47 133.41 101.2 136.81 101.42 140.87 99.89 141.86 101.42 145.81 104.5 149.1 105.05 152.72 106.25 155.14 109.22 154.7 109.98 153.71 114.05 155.03 116.46 154.48 119.43 151.96 122.28 151.96 123.82 153.49 126.56 152.4 129.31 148.55 130.73 148.34 132.38 144.49 136 142.19 137.87 141.64 140.17 141.75 140.72 142.62 144.9 142.41 145.77 143.5 148.62 144.16 155.43 141.53 160.92 140.98 162.79 139.44 163.12 137.69 168.3 133.62 170.54 133.73 172.35 135.15 174.43 134.72 175.8 133.4 176.68 134.22 178.7 134.22 182.91 130.72 185.93 125.79 188.61 124.48 190.14 124.65 206.15 119.9 207.57 118.37 216.58 116.72 222.28 113.87 225.14 111.23 231.4 109.91 230.84 108.27 231.28 107.39 230.08 106.18 230.52 102.56 235.46 96.52 241.05 95.31 244.29 94.49 235.94 84.57 237.83 78.29 224.63 61.53 225.49 54.38 170.63 70.78 144.27 106.44"/><polygon class="cls-4" points="263.53 155.12 261.6 154.12 258.71 154.75 256.67 155.33 254.84 154.91 254.05 153.44 252.22 153.18 250.54 154.6 250.28 156.85 248.5 157.8 250.38 158.85 252.16 160.26 255.25 160.9 259.6 160.21 262.75 158.17 264.95 158.01 266.05 156.7 265.84 155.59 263.53 155.12"/><polygon class="cls-4" points="230.52 162.34 234.28 162.97 237.42 162.55 233.55 161.4 230.52 162.34"/><polygon class="cls-4" points="170.63 70.78 225.49 54.38 225.49 54.38 170.63 70.78"/><polygon class="cls-2" points="4.59 13.43 2.08 12.44 0.5 10.84 0.5 13.76 4.55 13.72 4.59 13.43"/><polygon class="cls-2" points="2.94 135.45 4.54 131 5.3 129.96 4.59 129.66 3.96 126.72 2.21 120.63 2.42 117.13 3.96 115.45 4.17 113.07 6.47 109.51 7.66 102.23 9.34 97.75 10.39 96.28 9.62 95.02 8.29 94.12 9.69 90.76 9.69 87.82 11.37 86.77 15.21 86.77 15.55 85.16 14.93 83.76 15.14 82.29 18 81.66 19.75 80.19 22.99 80.51 24.07 78.48 26.52 78.03 28.89 76.73 30.82 73.8 29.85 73.8 29.85 71.82 26.67 70.18 23.7 70.07 23.7 67.32 17.34 63.04 14.92 62.49 12.31 57.54 10.34 51.3 11.19 45.92 10.42 40.21 6.91 29.78 6.53 27.12 7.02 26.66 8.16 28.05 8.54 29 9.25 28.97 9.27 27.58 6.5 24.24 5.52 20.22 4.92 19.39 4.98 18.79 4.43 18.13 4.81 17.37 4.05 16.27 4.37 14.96 4.55 13.72 0.5 13.76 0.5 144.57 2.94 140.4 2.94 135.45"/><polygon class="cls-2" points="157.56 222.11 114.85 208.99 111.22 205.92 105.92 204.8 103.96 200.34 104.52 196.15 100.61 194.19 98.1 186.38 97.22 180.87 98.13 179.3 95.54 177.8 91.63 178.5 88.21 180.73 82.76 180.94 81.36 179.27 83.67 175.98 83.95 173.32 85.34 170.73 84.78 166.95 86.04 164.36 86.95 160.86 89.74 160.05 85.76 154.85 83.67 154.78 82.76 153.03 82.41 150.23 79.62 146.24 76.96 145.68 72.84 141.62 69.42 139.38 68.44 138.06 65.64 137.78 65.22 136.8 61.03 136.17 59.92 133.93 54.81 129.38 52.44 128.89 49.86 126.51 46.92 125.88 44.55 126.37 44.13 127.21 39.52 123.5 37 123.43 35.95 124.55 33.93 122.73 31.13 123.08 28.48 125.39 25.76 125.39 20.03 123.29 19.19 121.82 17.58 120.77 13.67 129.03 11.37 129.17 10.32 130.92 7.24 130.78 5.3 129.96 4.54 131 2.94 135.45 2.94 140.4 0.5 144.57 0.5 231.59 166.43 231.59 176.27 221.83 157.56 222.11"/><polygon class="cls-2" points="26.52 78.03 24.07 78.48 22.99 80.51 19.75 80.19 18 81.66 15.14 82.29 14.93 83.76 15.55 85.16 15.21 86.77 11.37 86.77 9.69 87.82 9.69 90.76 8.29 94.12 9.62 95.02 10.39 96.28 9.34 97.75 7.66 102.23 6.47 109.51 4.17 113.07 3.96 115.45 2.42 117.13 2.21 120.63 3.96 126.72 4.59 129.66 7.24 130.78 10.32 130.92 11.37 129.17 13.67 129.03 17.58 120.77 19.19 121.82 20.03 123.29 25.76 125.39 28.48 125.39 31.13 123.08 33.93 122.73 35.95 124.55 37 123.43 39.52 123.5 44.13 127.21 44.55 126.37 46.92 125.88 49.86 126.51 52.44 128.89 54.81 129.38 59.92 133.93 61.03 136.17 65.22 136.8 65.64 137.78 68.44 138.06 69.42 139.38 72.84 141.62 76.96 145.68 79.62 146.24 82.41 150.23 82.76 153.03 83.67 154.78 85.76 154.85 89.74 160.05 92.96 159.12 94.15 157.78 96.59 157.09 99.23 154.12 98.46 153.76 97.97 152.94 96.82 153.98 95.23 153.16 93.7 153.16 92.39 150.31 92.93 149.44 90.86 146.76 89.05 146.27 86.64 140.25 85.65 138.88 85.54 139.75 84.34 139.75 82.26 137.18 79.25 135.92 77.17 132.25 72.25 126.78 71.37 125.25 67.32 124.32 65.95 122.62 63.27 119.61 61.41 120.27 60.48 119.72 58.34 119.99 56.92 120.98 55.22 119.28 52.8 115.62 53.78 114.52 51.15 110.79 50.05 111.23 49.83 114.19 50.49 114.08 50.71 118.15 48.18 117.49 47.42 112.99 46.21 109.91 44.23 109.26 44.23 107.94 43.46 104.09 42.37 103.77 40.39 93.34 34.35 77.42 30.95 73.8 30.82 73.8 28.89 76.73 26.52 78.03"/><polygon class="cls-2" points="94.15 157.78 92.96 159.12 86.95 160.86 86.04 164.36 84.78 166.95 85.34 170.73 83.95 173.32 83.67 175.98 81.36 179.27 82.76 180.94 88.21 180.73 91.63 178.5 95.54 177.8 98.13 179.3 98.48 178.71 101.86 172.47 101.36 171.44 97.58 171.5 95.34 172.43 94.36 172.21 92.77 170.24 95.89 170.24 97.37 168.05 99.39 168 102.07 164.98 103.55 164.38 103.06 159.89 103.5 158.53 102.56 158.53 99.23 155.24 99.28 154.15 99.23 154.12 96.59 157.09 94.15 157.78"/><polygon class="cls-2" points="200.44 228.58 199.01 226.49 199.23 224.86 202.45 221.36 203.6 221.58 205.68 219 209.11 211.78 214.11 204.78 213.9 201 214.82 199.47 215.37 196.02 214.22 194.1 216.36 190.49 217.62 190.16 219.47 190.13 219.77 190.7 220.7 190.21 219.85 188.47 218.93 188.23 219.17 188.93 217.21 189.21 218.28 186.92 217.81 184.47 216.51 182.7 217.81 179.68 219.34 178.4 219.2 177.53 217.32 177.48 216.62 176.2 217.46 174.75 217.62 172.41 218.55 170.1 220.04 167.87 219.39 167.46 217.73 167.6 214 166.32 212.26 165.09 212.43 165.75 211.2 165.58 209.43 167.33 209.79 167.68 208.67 169.78 208.18 169.39 205.59 171.95 201.14 172.48 200.7 173.69 199.5 172.59 195.23 173.19 192.55 175.33 185.49 176.64 183.99 176.66 182.6 175.85 178.03 176.17 173.97 178.19 170.05 178.01 167.86 178.72 165.02 177.46 162.17 178.01 153.36 183.48 149.14 183.98 146.24 182.61 144.88 183.1 140.93 183.27 140.06 182.44 138.63 182.5 133.77 186.38 131.41 186.44 127.63 188.74 126.32 190.32 122.11 190.87 118.55 190 114.93 186.71 113.51 186.33 112.47 184.14 103.66 174.45 102.73 174.29 101.86 172.47 98.48 178.71 98.13 179.3 97.22 180.87 98.1 186.38 100.61 194.19 104.52 196.15 103.96 200.34 105.92 204.8 111.22 205.92 114.85 208.99 157.56 222.11 176.27 221.83 166.43 231.59 197.86 231.59 198.57 230.22 200.44 228.58"/><polygon class="cls-2" points="97.22 180.87 98.13 179.3 98.13 179.3 97.22 180.87"/><polygon class="cls-2" points="98.13 179.3 98.48 178.71 98.13 179.3 98.13 179.3"/></g></svg>