<svg xmlns="http://www.w3.org/2000/svg" viewBox="0 0 298 232"><defs><style>.cls-1{fill:#4a4a49;}.cls-1,.cls-2,.cls-3{stroke:#c1c1c1;stroke-miterlimit:10;}.cls-2{fill:#666;}.cls-3{fill:#999;}</style></defs><title>yemen_1</title><g id="Layer_2" data-name="Layer 2"><g id="Layer_1-2" data-name="Layer 1"><polygon class="cls-1" points="5.3 129.87 7.24 130.69 4.59 129.57 5.3 129.87"/><polygon class="cls-1" points="89.74 159.96 86.95 160.77 92.96 159.03 89.74 159.96"/><path class="cls-1" d="M290,66.37v4.49l-1.31,1.2-2.74,2.79-1.75-.71-3.61.6-5-.11L274.21,76l-2,2,.39,1.42-.28,1.81,1.37.77-.17,1.7-.71.16.16.6-3.5,5.2-1.75.16-2.3-1.42-2.46.49L260,88.7l-5.15,2.79-3.18-.11-1.87,3.07H247l-.77-.55-1.93.49-3.23.83-5.6,1.21-4.94,6-.44,3.62,1.2,1.21-.44.88.55,1.65-6.26,1.32-2.85,2.64-5.71,2.85-9,1.65-1.43,1.54-16,4.74-1.53-.17-2.68,1.31-3,4.92-4.21,3.5h-2l-.88-.82-1.37,1.31-2.08.44-1.81-1.42-2.24-.11-5.18,4.07-.33,1.76-1.87,1.54-5.49.55-6.81,2.63-2.85-.66-.88-1.1-4.17.22-.55-.88-2.3-.11-1.87.55-3.62,2.31-1.65,3.84-1.43.22-2.75,3.84-2.74,1.1-1.54-1.54h-2.85l-3,2.52-2.41.55L110,153.62l-.77,1-3,.44L105,152.63,104.5,149l-3.07-3.29-1.54-4,1.54-1-.22-4.06-3.73-3.4-1.87-13.5-3.51-4.5-.11-2.2H90.45l-1-2.09,2.31.66v-1.54h1.65l.22-4.39-1.32-7.36-.93-2.67L88.8,88.31,84.19,87l-1-6.26H81.55l-11-11.08-.22-3.74L67.29,64,63.88,51.53,62,50.77l.44-2.09L58.83,48l-.11-2.19L54.44,42.2H53l-2-2.85-2.93-.23-2.46-1L38.25,30.2l-.44-2-2.63-2.3-.6-5.53-1.42-5.25-1.09-2.3,1.09-1L34.26,7l-.87-1.59-.88-5H.5V10.75l1.58,1.6,2.52,1,0,.3-.18,1.23L4,16.18l.77,1.1L4.43,18,5,18.7l-.06.6.6.82,1,4,2.78,3.34,0,1.39-.7,0-.38-1L7,26.57,6.53,27l.38,2.66,3.51,10.43.77,5.71-.85,5.39,2,6.24,2.61,4.95,2.41.55,6.37,4.28V70l3,.11,3.18,1.65v2h1.1l3.4,3.62,6,15.92,2,10.43,1.1.33.77,3.84v1.32l2,.66,1.21,3.07.77,4.5,2.52.66L50.49,114l-.66.11.22-3,1.1-.44,2.63,3.73-1,1.1,2.43,3.66,1.7,1.7,1.42-1,2.14-.28.93.55,1.86-.66,2.68,3,1.37,1.7,4,.93.88,1.53,4.92,5.47,2.08,3.67,3,1.26,2.08,2.57h1.2l.11-.88,1,1.37,2.41,6,1.81.49,2.08,2.68-.55.88,1.32,2.85h1.53l1.59.82,1.15-1,.49.82.77.36.06,0-.06,1.09,3.34,3.29h.93l-.43,1.37.49,4.49-1.48.6-2.68,3-2,.05-1.48,2.19H92.77l1.59,2,1,.22,2.24-.93,3.78-.06.49,1,.88,1.82.93.16,8.81,9.69,1,2.19,1.42.38,3.61,3.28,3.56.88,4.21-.55,1.31-1.59,3.78-2.3,2.36-.05,4.87-3.88,1.42-.06.87.82,3.94-.16,1.37-.49,2.9,1.37,4.21-.49,8.81-5.47,2.85-.55,2.85,1.26,2.19-.71,3.92.18,4.05-2,4.57-.32,1.39.81,1.5,0,7.06-1.31,2.68-2.14,4.27-.6,1.21,1.09.43-1.2,4.46-.53,2.58-2.56.49.38,1.12-2.1-.35-.35,1.77-1.74,1.22.16-.16-.65,1.74,1.23,3.73,1.28,1.66-.13.65.41-1.5,2.23-.93,2.31-.16,2.34-.84,1.44.71,1.28,1.88.05.14.87-1.53,1.28-1.3,3,1.3,1.77.46,2.45-1.06,2.28,2-.27-.25-.71.93.25.84,1.74-.92.49-.3-.57-1.85,0-1.27.33L214.22,194l1.15,1.91-.55,3.45-.93,1.53.22,3.78-5,7-3.43,7.22-2.08,2.58-1.15-.22-3.23,3.5L199,226.4l1.43,2.08-1.87,1.65-.72,1.37H297.5V59.32l-2.22.59Zm-55.69,96.5-3.77-.63,3-.94,3.87,1.15Zm30.66-5-2.2.16-3.14,2-4.35.68-3.09-.63-1.78-1.42-1.89-1.05,1.78-.94.26-2.26,1.68-1.42,1.83.26.78,1.47,1.83.42,2-.58,2.88-.63,1.94,1,2.31.47.21,1.1Z"/><polygon class="cls-2" points="34.26 7.04 33.16 11.81 32.07 12.79 33.16 15.09 34.59 20.34 35.19 25.87 37.82 28.17 38.25 30.2 45.64 38.08 48.11 39.12 51.04 39.35 53.02 42.2 54.44 42.2 58.72 45.83 58.83 48.02 62.45 48.68 62.02 50.77 63.88 51.53 67.29 64.05 70.36 65.91 70.58 69.65 81.56 80.73 83.2 80.73 84.19 86.99 88.8 88.31 91.38 95.73 93.97 96 96.17 96.94 97.73 94.01 101.6 91.5 98.99 86.59 100.87 79.68 104.74 78.01 109.13 81.56 118.23 81.88 130.68 86.9 143.64 93.17 144.27 106.35 170.63 70.69 225.49 54.29 266.74 41.96 268.83 10.33 266.02 0.5 263.33 0.5 260.66 3 244.27 0.5 32.51 0.5 33.38 5.46 34.26 7.04"/><polygon class="cls-2" points="263.33 0.5 244.27 0.5 260.66 3 263.33 0.5"/><polygon class="cls-2" points="266.02 0.5 268.83 10.33 266.74 41.96 225.49 54.29 224.63 61.44 237.83 78.2 235.94 84.48 244.29 94.4 246.21 93.91 246.98 94.45 249.84 94.45 251.7 91.38 254.88 91.49 260.03 88.7 262.94 88.92 265.4 88.43 267.7 89.85 269.45 89.69 272.95 84.49 272.79 83.89 273.5 83.72 273.66 82.03 272.29 81.26 272.57 79.45 272.18 78.03 274.21 76.01 275.52 74.64 280.56 74.75 284.17 74.15 285.92 74.86 288.66 72.06 289.97 70.86 289.97 66.37 295.28 59.91 297.5 59.32 297.5 0.5 266.02 0.5"/><polygon class="cls-2" points="225.49 54.29 266.74 41.96 225.49 54.29 225.49 54.29"/><polygon class="cls-3" points="144.27 106.35 143.64 93.17 130.68 86.9 118.23 81.88 109.13 81.56 104.74 78.01 100.87 79.68 98.99 86.59 101.6 91.5 97.73 94.01 96.17 96.94 93.97 96 91.38 95.73 92.31 98.41 93.63 105.76 93.41 110.15 91.76 110.15 91.76 111.69 89.46 111.03 90.45 113.12 91.98 113.12 92.09 115.31 95.61 119.81 97.47 133.32 101.2 136.72 101.42 140.78 99.89 141.77 101.42 145.72 104.5 149.01 105.05 152.63 106.25 155.05 109.22 154.61 109.98 153.62 114.05 154.94 116.46 154.39 119.43 151.87 122.28 151.87 123.82 153.4 126.56 152.31 129.31 148.46 130.73 148.25 132.38 144.4 136 142.1 137.87 141.55 140.17 141.66 140.72 142.53 144.9 142.32 145.77 143.41 148.62 144.07 155.43 141.44 160.92 140.89 162.79 139.35 163.12 137.6 168.3 133.53 170.54 133.64 172.35 135.06 174.43 134.63 175.8 133.31 176.68 134.13 178.7 134.13 182.91 130.63 185.93 125.7 188.61 124.39 190.14 124.56 206.15 119.81 207.57 118.28 216.58 116.63 222.28 113.78 225.14 111.14 231.4 109.82 230.84 108.18 231.28 107.3 230.08 106.09 230.52 102.47 235.46 96.43 241.05 95.22 244.29 94.4 235.94 84.48 237.83 78.2 224.63 61.44 225.49 54.29 170.63 70.69 144.27 106.35"/><polygon class="cls-3" points="263.53 155.03 261.6 154.03 258.71 154.66 256.67 155.24 254.84 154.82 254.05 153.35 252.22 153.09 250.54 154.51 250.28 156.76 248.5 157.71 250.38 158.76 252.16 160.17 255.25 160.81 259.6 160.12 262.75 158.08 264.95 157.92 266.05 156.61 265.84 155.5 263.53 155.03"/><polygon class="cls-3" points="230.52 162.25 234.28 162.88 237.42 162.46 233.55 161.31 230.52 162.25"/><polygon class="cls-3" points="170.63 70.69 225.49 54.29 225.49 54.29 170.63 70.69"/><polygon class="cls-2" points="4.59 13.34 2.08 12.35 0.5 10.75 0.5 13.67 4.55 13.63 4.59 13.34"/><polygon class="cls-2" points="2.94 135.36 4.54 130.91 5.3 129.87 4.59 129.57 3.96 126.63 2.21 120.54 2.42 117.04 3.96 115.36 4.17 112.98 6.47 109.42 7.66 102.14 9.34 97.66 10.39 96.19 9.62 94.93 8.29 94.03 9.69 90.67 9.69 87.73 11.37 86.68 15.21 86.68 15.55 85.07 14.93 83.67 15.14 82.2 18 81.57 19.75 80.1 22.99 80.42 24.07 78.39 26.52 77.94 28.89 76.64 30.82 73.71 29.85 73.71 29.85 71.73 26.67 70.09 23.7 69.98 23.7 67.23 17.34 62.95 14.92 62.4 12.31 57.45 10.34 51.21 11.19 45.83 10.42 40.12 6.91 29.69 6.53 27.03 7.02 26.57 8.16 27.96 8.54 28.91 9.25 28.88 9.27 27.49 6.5 24.15 5.52 20.13 4.92 19.3 4.98 18.7 4.43 18.04 4.81 17.28 4.05 16.18 4.37 14.87 4.55 13.63 0.5 13.67 0.5 144.48 2.94 140.31 2.94 135.36"/><polygon class="cls-2" points="157.56 222.02 114.85 208.9 111.22 205.83 105.92 204.71 103.96 200.25 104.52 196.06 100.61 194.1 98.1 186.29 97.22 180.78 98.13 179.21 95.54 177.71 91.63 178.41 88.21 180.64 82.76 180.85 81.36 179.18 83.67 175.89 83.95 173.23 85.34 170.64 84.78 166.86 86.04 164.27 86.95 160.77 89.74 159.96 85.76 154.76 83.67 154.69 82.76 152.94 82.41 150.14 79.62 146.15 76.96 145.59 72.84 141.53 69.42 139.29 68.44 137.97 65.64 137.69 65.22 136.71 61.03 136.08 59.92 133.84 54.81 129.29 52.44 128.8 49.86 126.42 46.92 125.79 44.55 126.28 44.13 127.12 39.52 123.41 37 123.34 35.95 124.46 33.93 122.64 31.13 122.99 28.48 125.3 25.76 125.3 20.03 123.2 19.19 121.73 17.58 120.68 13.67 128.94 11.37 129.08 10.32 130.83 7.24 130.69 5.3 129.87 4.54 130.91 2.94 135.36 2.94 140.31 0.5 144.48 0.5 231.5 166.43 231.5 176.27 221.74 157.56 222.02"/><polygon class="cls-2" points="26.52 77.94 24.07 78.39 22.99 80.42 19.75 80.1 18 81.57 15.14 82.2 14.93 83.67 15.55 85.07 15.21 86.68 11.37 86.68 9.69 87.73 9.69 90.67 8.29 94.03 9.62 94.93 10.39 96.19 9.34 97.66 7.66 102.14 6.47 109.42 4.17 112.98 3.96 115.36 2.42 117.04 2.21 120.54 3.96 126.63 4.59 129.57 7.24 130.69 10.32 130.83 11.37 129.08 13.67 128.94 17.58 120.68 19.19 121.73 20.03 123.2 25.76 125.3 28.48 125.3 31.13 122.99 33.93 122.64 35.95 124.46 37 123.34 39.52 123.41 44.13 127.12 44.55 126.28 46.92 125.79 49.86 126.42 52.44 128.8 54.81 129.29 59.92 133.84 61.03 136.08 65.22 136.71 65.64 137.69 68.44 137.97 69.42 139.29 72.84 141.53 76.96 145.59 79.62 146.15 82.41 150.14 82.76 152.94 83.67 154.69 85.76 154.76 89.74 159.96 92.96 159.03 94.15 157.69 96.59 157 99.23 154.03 98.46 153.67 97.97 152.85 96.82 153.89 95.23 153.07 93.7 153.07 92.39 150.22 92.93 149.35 90.86 146.67 89.05 146.18 86.64 140.16 85.65 138.79 85.54 139.66 84.34 139.66 82.26 137.09 79.25 135.83 77.17 132.16 72.25 126.69 71.37 125.16 67.32 124.23 65.95 122.53 63.27 119.52 61.41 120.18 60.48 119.63 58.34 119.9 56.92 120.89 55.22 119.19 52.8 115.53 53.78 114.43 51.15 110.7 50.05 111.14 49.83 114.1 50.49 113.99 50.71 118.06 48.18 117.4 47.42 112.9 46.21 109.82 44.23 109.17 44.23 107.85 43.46 104 42.37 103.68 40.39 93.25 34.35 77.33 30.95 73.71 30.82 73.71 28.89 76.64 26.52 77.94"/><polygon class="cls-2" points="94.15 157.69 92.96 159.03 86.95 160.77 86.04 164.27 84.78 166.86 85.34 170.64 83.95 173.23 83.67 175.89 81.36 179.18 82.76 180.85 88.21 180.64 91.63 178.41 95.54 177.71 98.13 179.21 98.48 178.62 101.86 172.38 101.36 171.35 97.58 171.41 95.34 172.34 94.36 172.12 92.77 170.15 95.89 170.15 97.37 167.96 99.39 167.91 102.07 164.89 103.55 164.29 103.06 159.8 103.5 158.44 102.56 158.44 99.23 155.15 99.28 154.06 99.23 154.03 96.59 157 94.15 157.69"/><polygon class="cls-2" points="200.44 228.49 199.01 226.4 199.23 224.77 202.45 221.27 203.6 221.49 205.68 218.91 209.11 211.69 214.11 204.69 213.9 200.91 214.82 199.38 215.37 195.93 214.22 194.01 216.36 190.4 217.62 190.07 219.47 190.04 219.77 190.61 220.7 190.12 219.85 188.38 218.93 188.14 219.17 188.84 217.21 189.12 218.28 186.83 217.81 184.38 216.51 182.61 217.81 179.59 219.34 178.31 219.2 177.44 217.32 177.39 216.62 176.11 217.46 174.66 217.62 172.32 218.55 170.01 220.04 167.78 219.39 167.37 217.73 167.51 214 166.23 212.26 165 212.43 165.66 211.2 165.49 209.43 167.24 209.79 167.59 208.67 169.69 208.18 169.3 205.59 171.86 201.14 172.39 200.7 173.6 199.5 172.5 195.23 173.1 192.55 175.24 185.49 176.55 183.99 176.57 182.6 175.76 178.03 176.08 173.97 178.1 170.05 177.92 167.86 178.63 165.02 177.37 162.17 177.92 153.36 183.39 149.14 183.89 146.24 182.52 144.88 183.01 140.93 183.18 140.06 182.35 138.63 182.41 133.77 186.29 131.41 186.35 127.63 188.65 126.32 190.23 122.11 190.78 118.55 189.91 114.93 186.62 113.51 186.24 112.47 184.05 103.66 174.36 102.73 174.2 101.86 172.38 98.48 178.62 98.13 179.21 97.22 180.78 98.1 186.29 100.61 194.1 104.52 196.06 103.96 200.25 105.92 204.71 111.22 205.83 114.85 208.9 157.56 222.02 176.27 221.74 166.43 231.5 197.86 231.5 198.57 230.13 200.44 228.49"/><polygon class="cls-2" points="97.22 180.78 98.13 179.21 98.13 179.21 97.22 180.78"/><polygon class="cls-2" points="98.13 179.21 98.48 178.62 98.13 179.21 98.13 179.21"/></g></g></svg>